<?xml version="1.0" encoding="UTF-8" standalone="no"?>
<!-- Created with Inkscape (http://www.inkscape.org/) -->

<svg
   xmlns:dc="http://purl.org/dc/elements/1.1/"
   xmlns:cc="http://creativecommons.org/ns#"
   xmlns:rdf="http://www.w3.org/1999/02/22-rdf-syntax-ns#"
   xmlns:svg="http://www.w3.org/2000/svg"
   xmlns="http://www.w3.org/2000/svg"
   xmlns:sodipodi="http://sodipodi.sourceforge.net/DTD/sodipodi-0.dtd"
   xmlns:inkscape="http://www.inkscape.org/namespaces/inkscape"
   version="1.1"
   width="558.53491"
   height="553.875"
   id="svg2"
   inkscape:version="0.48.1 "
   sodipodi:docname="Avatar.svg">
  <sodipodi:namedview
     pagecolor="#ffffff"
     bordercolor="#666666"
     borderopacity="1"
     objecttolerance="10"
     gridtolerance="10"
     guidetolerance="10"
     inkscape:pageopacity="0"
     inkscape:pageshadow="2"
     inkscape:window-width="1920"
     inkscape:window-height="1178"
     id="namedview136"
     showgrid="false"
     fit-margin-top="1"
     fit-margin-left="1"
     fit-margin-right="1"
     fit-margin-bottom="0"
     inkscape:zoom="1.4967059"
     inkscape:cx="104.40984"
     inkscape:cy="297.41307"
     inkscape:window-x="-8"
     inkscape:window-y="-8"
     inkscape:window-maximized="1"
     inkscape:current-layer="layer2" />
  <defs
     id="defs4">
    <linearGradient
       id="linearGradient4821">
      <stop
         id="stop4823"
         style="stop-color:#008000;stop-opacity:1"
         offset="0" />
      <stop
         id="stop3088"
         style="stop-color:#ffffff;stop-opacity:1"
         offset="0.25" />
      <stop
         id="stop4829"
         style="stop-color:#ffffff;stop-opacity:1"
         offset="0.5" />
      <stop
         id="stop3090"
         style="stop-color:#ffffff;stop-opacity:1"
         offset="0.69999999" />
      <stop
         id="stop4825"
         style="stop-color:#ff0000;stop-opacity:1"
         offset="1" />
    </linearGradient>
  </defs>
  <metadata
     id="metadata7">
    <rdf:RDF>
      <cc:Work
         rdf:about="">
        <dc:format>image/svg+xml</dc:format>
        <dc:type
           rdf:resource="http://purl.org/dc/dcmitype/StillImage" />
        <dc:title />
      </cc:Work>
    </rdf:RDF>
  </metadata>
  <g
     inkscape:groupmode="layer"
     id="layer2"
     inkscape:label="Livello"
     transform="translate(0.66328203,0.70268)">
    <g
       transform="translate(-56.190864,-65.64018)"
       id="layer1">
      <path
         style="opacity:0.53100777;color:#000000;fill:#1a1a1a;fill-opacity:1;fill-rule:nonzero;stroke:#b3b3b3;stroke-width:0.89261091;stroke-linecap:butt;stroke-linejoin:miter;stroke-miterlimit:4;stroke-opacity:1;stroke-dashoffset:0;marker:none;visibility:visible;display:inline;overflow:visible;enable-background:accumulate"
         d="m 57.499641,66.371777 553.716959,0 0,550.219423 -553.716959,0 z"
         id="rect4809"
         inkscape:connector-curvature="0" />
      <g
         transform="matrix(2.6233441,0,0,2.6233441,834.76197,-1682.9876)"
         id="g4050"
         style="opacity:0.92083327;fill:#f9f9f9;fill-opacity:0.90099015" />
      <g
         id="g3106">
        <path
           inkscape:connector-curvature="0"
           style="color:#000000;fill:#f9f9f9;fill-opacity:1;fill-rule:nonzero;stroke:#b3b3b3;stroke-width:1;stroke-linecap:butt;stroke-linejoin:miter;stroke-miterlimit:4;stroke-opacity:1;stroke-dasharray:none;stroke-dashoffset:0;marker:none;visibility:visible;display:inline;overflow:visible;enable-background:accumulate"
           id="path4784"
           d="m 462.85714,423.79075 149.71429,91.42858 0,24.28571 0,58.57143 0,19.28571 -555.246777,0 0.207797,-34.22081 c 0,0 -2.908195,-16.23277 5.324693,-29.7922 8.232888,-13.55943 33.084106,-27.17301 51.428567,-39.61042 31.09592,-21.08281 97.97405,-45.29869 97.97405,-45.29869 z" />
        <path
           inkscape:connector-curvature="0"
           style="fill:#b3b3b3;stroke:none"
           id="path3136"
           d="m 223.1777,492.73767 c -8.08123,0 -30.30458,14.14214 -30.30458,14.14214 l 2.02031,36.36549 -6.06092,42.42641 20.20305,18.18274 94.95434,-10.10152 28.28427,-24.24366 -42.42641,-68.69038 z" />
        <path
           inkscape:connector-curvature="0"
           id="path2996"
           transform="translate(55.527582,64.9375)"
           d="m 272.46875,67.8125 c -7.39044,-0.101884 -14.80625,1.24091 -22.21875,4.8125 -33.13532,4.9497 -62.06843,23.13852 -93.71875,32.9375 -1.77418,12.98721 -11.02335,23.52104 -12.71875,36.53125 -3.34496,28.22474 -9.06915,55.17674 -7.0625,83.40625 -1.33318,5.66421 -4.54278,76.63558 -1.0625,89.0625 6.09699,48.71822 25.46718,77.25755 53,98.96875 -8.08518,21.29959 -3.45131,64.07734 28.46875,48.5 58.98455,-16.28081 112.29458,-48.67409 158.875,-87.78125 9.85199,-9.57691 22.16227,-46.32133 17.875,-56.6875 7.35174,-2.67055 13.82145,-6.58229 14.1875,-16.8125 2.12277,-27.06557 37.05795,-48.67089 24.0625,-75.0625 -14.37206,-22.14139 -31.25354,3.07292 -46.6875,3.90625 -19.43276,-18.4973 6.21042,-48.92304 -9.625,-71.46875 C 367.5247,132.98432 364.6173,100.92335 337.375,88.25 316.58361,81.598325 294.64008,68.118151 272.46875,67.8125 z m -83.6875,345.8125 c 3.96601,3.12263 8.11739,6.08831 12.40625,8.96875 -4.80315,-2.0269 -9.08985,-4.85437 -12.40625,-8.96875 z m 57.3125,14.3125 c -2.5521,0.51787 -5.12183,0.9283 -7.71875,1.21875 -1.01226,-0.13708 -2.04087,-0.25493 -3.09375,-0.375 3.60164,-0.0989 7.20677,-0.38412 10.8125,-0.84375 z"
           style="fill:#e9c6af;stroke:none" />
        <path
           inkscape:connector-curvature="0"
           style="fill:#e19696;fill-opacity:1;stroke:none"
           id="path3005"
           transform="matrix(0.99872025,-0.05057522,0.08209269,1.6211029,-33.429726,-231.65535)"
           d="m 234.57143,393.43361 c 25.73397,8.00039 53.08595,5.21245 79.53876,7.16657 19.46522,1.70401 -17.00153,7.62537 -23.82985,6.62572 -20.41243,5.38519 -38.01537,-6.08067 -55.70891,-13.79228 l 0,-1e-5 z" />
        <path
           inkscape:connector-curvature="0"
           id="path3017"
           transform="translate(55.527582,64.9375)"
           d="m 175.125,329.375 c 7.44686,2.75775 15.47413,3.83945 23.40625,4.84375 18.08171,4.46849 42.35942,0.19296 60.8125,3.40625 19.0897,0.74204 -4.81167,-2.86877 -15.25,-5.75 -23.21909,-1.83704 -44.79143,-1.12178 -68.96875,-2.5 z m -1.09375,1.125 c 13.87336,16.65192 39.71304,24.939 63.90625,20.40625 7.62154,-0.41485 39.9476,-5.03432 26,-11.25 -20.80592,5.08541 -44.40775,4.19182 -64.875,-1.34375 -8.2491,-2.493 -16.36003,-6.81419 -25.03125,-7.8125 z"
           style="fill:#ebb6b6;fill-opacity:1;stroke:none" />
        <path
           inkscape:connector-curvature="0"
           style="opacity:0.53100777;color:#000000;fill:#e9c6af;fill-opacity:1;fill-rule:nonzero;stroke:none;marker:none;visibility:visible;display:inline;overflow:visible;enable-background:accumulate"
           id="path3038"
           d="m 192.07143,273.79075 c -3.52936,-11.54888 -16.66939,-33.35188 -12.68973,-8.71312 -2.04007,11.91487 2.95111,35.75707 13.24627,36.54416 -0.40112,-9.28864 -0.12377,-18.5399 -0.55654,-27.83104 z" />
        <path
           inkscape:connector-curvature="0"
           id="path4249"
           transform="translate(55.527582,64.9375)"
           d="m 124.3125,188.90625 c -1.2843,0.35918 -1.71239,3.51914 -0.46875,11.21875 -2.04007,11.91487 2.95484,35.77541 13.25,36.5625 -0.40112,-9.28864 -0.12973,-18.55261 -0.5625,-27.84375 -2.42643,-7.93985 -9.39329,-20.72769 -12.21875,-19.9375 z m 295.59375,30.28125 c -4.08875,0.25141 -13.23646,3.60613 -4.4375,2.53125 1.58919,18.96793 2.71449,46.24099 -15.40625,55.78125 17.30911,-8.79663 36.87287,-44.15246 21.21875,-58.21875 -0.31115,-0.11277 -0.79089,-0.12967 -1.375,-0.0937 z m -29.4375,20.75 c -11.036,12.70657 -6.19683,26.1246 -11.78125,41.78125 18.1641,-12.70687 36.27358,-20.96733 11.78125,-41.78125 z m -6.9375,46.46875 c -1.56871,0.0171 -3.21825,0.51361 -5.1875,1.375 -2.0924,19.71319 31.58246,10.2952 11.15625,1.28125 -2.08689,-1.89845 -3.95184,-2.6782 -5.96875,-2.65625 z"
           style="opacity:0.53100777;color:#000000;fill:#916f6f;fill-opacity:1;fill-rule:nonzero;stroke:none;marker:none;visibility:visible;display:inline;overflow:visible;enable-background:accumulate" />
        <path
           inkscape:connector-curvature="0"
           style="fill:#333333;stroke:none"
           id="path3070"
           d="m 220.28571,504.50504 c 6.11259,-21.62843 -57.23628,-10.38874 -41.1203,20.2623 11.69591,5.72326 6.97681,46.13003 9.77574,42.09279 11.39683,-17.30458 29.10906,-27.69005 19.04039,-49.73054 -4.31248,-16.9418 14.76848,0.85167 12.30417,-12.62455 z" />
        <path
           inkscape:connector-curvature="0"
           style="fill:#f9f9f9;stroke:#b3b3b3;stroke-opacity:1"
           id="path3056"
           d="m 452.60714,391.82589 c -0.68241,-1.10471 -2.90469,-1.35653 -2.90625,-0.058 -0.0202,16.8248 -17.94422,51.31708 -40.54464,65.57589 -39.09979,31.21516 -84.69713,53.84015 -132.5625,68.09375 -31.97409,18.16955 -39.24255,-22.23821 -31.33439,-47.02538 -2.82632,-10.75806 -15.25583,-12.38931 -16.06372,-15.21044 -1.8746,-1.11803 -3.11181,-5.49763 -7.90424,-6.35714 -20.05649,7.22386 -41.42514,43.63925 -43.8539,52.28046 9.31774,-15.37246 36.13959,-1.3407 43.5625,-10.28125 -0.59227,13.34812 -0.4143,27.43259 7.90625,32.34375 10.53461,8.8066 11.29051,7.25322 23.90625,4.625 19.20567,-8.18762 42.51524,-9.06625 43.03125,19.03125 -5.53922,20.10272 -16.06719,40.75461 -5.1875,63.21875 21.06955,-14.20231 38.42429,-33.17781 60.40625,-46.125 28.30134,-16.15167 53.54662,-36.64649 80.1875,-55.21875 19.83511,-14.21228 30.46162,-52.17645 31.03125,-64.13839 0.56963,-11.96195 5.48811,-36.2094 -9.67411,-60.75447 z" />
        <path
           inkscape:connector-curvature="0"
           style="fill:#550044;stroke:none"
           id="path3058"
           d="m 206.17857,502.54076 c -1.96291,19.13885 -3.49966,45.71345 -10.21339,52.3375 -12.68673,20.64415 -38.7668,46.1806 -60.90041,60.93783 3.75298,-2.61698 18.22525,0.0298 24.32845,-0.26068 15.2975,0.0784 30.595,0.15689 45.8925,0.23534 12.30165,-20.3594 37.77644,-22.99747 57.36588,-32.58885 14.07065,-7.11971 42.22628,-22.2887 30.20589,-40.41799 -18.11075,15.96872 -42.96337,-3.972 -63.95667,-1.23016 -7.60123,-3.21439 -8.97646,-30.8064 -8.41533,-39.88078 0.56113,-9.07439 3.05862,0.36884 -5.36861,0.51064 -2.68182,0 -6.25649,0.35715 -8.93831,0.35715 z" />
        <path
           inkscape:connector-curvature="0"
           style="fill:none;stroke:none"
           id="path3003"
           d="m 265.6041,272.52442 c 6.39412,25.80042 -9.27672,49.16921 -21.2132,70.71068 4.38582,12.42179 23.80099,30.38356 32.86082,8.4246 13.9501,-4.51197 16.57155,22.53462 28.95544,1.23651 2.38577,-5.64765 1.62364,-21.31491 -6.25787,-20.77279" />
        <path
           inkscape:connector-curvature="0"
           id="path3015"
           transform="translate(55.527582,64.9375)"
           d="m 291.34375,4.875 c -28.43244,2.59172 -57.67648,5.718096 -84.25,17.15625 -30.4429,2.411205 -36.02524,38.34752 -64.34375,45.65625 -22.70944,9.06267 -22.06906,37.91725 -26.90625,58.3125 7.64994,20.82238 2.28373,44.61901 10.34375,65.78125 2.65703,3.96464 7.06818,22.62943 11.0625,19.21875 4.08903,-27.44936 0.95332,-57.00921 13.8125,-82.28125 8.77616,-18.28805 40.47796,-0.25882 59.0625,-3.78125 25.40923,-7.61786 51.04088,-18.34523 77.65625,-17.8125 18.92104,-4.79419 40.76213,-27.10778 51.375,-3.65625 18.21378,4.34968 16.66729,33.89551 19.125,50.15625 1.40189,15.46209 -2.10871,32.50334 3.90625,46.78125 0.95375,36.38536 -0.59216,77.10488 2.21875,112.375 -8.03945,24.50575 -21.79901,49.62943 -47.75,58.46875 -9.10819,5.46855 -20.38414,5.84921 -30.46875,9.03125 -5.54371,-17.81733 -1.45756,-38.60095 -9.6875,-54.625 -14.9439,-10.16276 -33.95796,-15.38265 -51.875,-18.5 -19.71139,-0.44688 -45.727,-3.13593 -60.625,9.5 -3.12086,18.11116 -2.69624,36.71429 -4.25,55.0625 -7.71283,0.40509 -16.11933,-18.67361 -8.84375,-2.3125 14.37418,24.23665 35.24966,49.48472 63.25,57.21875 26.72365,4.05397 54.01057,-4.21611 77.59375,-16.25 22.88493,-13.03081 48.70798,-24.47487 60.28125,-49.78125 14.9155,-18.92494 22.86797,-40.81349 21.5,-63.625 -2.51173,-20.73253 5.63047,-47.08605 5.1875,-68.875 1.47741,1.68132 3.1938,2.96133 5.25,3.59375 16.05412,-2.23998 30.8176,-25.14724 46.875,-7.59375 0.29743,-28.82637 18.00082,-57.76523 10.5,-86.4375 -7.9522,-23.5381 -5.3522,-57.7946 -32.125,-68.40625 -17.45028,-5.44092 33.40311,-5.89448 6.8125,-7.90625 -24.6568,-0.31059 30.72578,-21.82287 4.5,-15.21875 -9.86452,1.82331 -25.68154,9.29337 -15.90625,-7.78125 C 403.68199,30.92004 382.68616,57.17027 388.65625,36.5 371.29402,50.52201 358.28705,34.109729 349.3125,17.75 332.35729,8.569423 310.43996,9.244396 291.34375,4.875 z M 285.375,179.71875 c -14.61332,-0.095 -30.02346,5.29673 -40.96875,13.0625 20.9763,14.3763 45.74262,-7.01888 67.875,5.25 14.39008,10.21711 11.90153,3.75934 3.25,-6.65625 -7.91235,-8.18839 -18.79034,-11.58238 -30.15625,-11.65625 z m -120.25,0.125 c -10.80013,-0.11487 -20.22251,4.03644 -22.15625,17.21875 13.20182,-6.27928 20.57752,-8.94596 35.25,-1.9375 12.6545,4.52404 40.1107,-1.54512 14.5,-8.28125 -7.46627,-3.48078 -18.06423,-6.89864 -27.59375,-7 z m 7.5,141.5 c 32.03175,2.07356 65.82617,0.61622 96.0625,12.28125 5.61469,16.64608 1.58832,44.6051 -5.6875,58.46875 -17.57754,7.88023 -49.20763,13.99084 -39.96875,-15.5 4.74696,-12.84063 7.38536,-20.7314 -9.5,-17.34375 -21.10162,-5.6986 8.28197,57.65889 -26.15625,34.1875 -23.14782,-18.10348 -19.89467,-46.14191 -14.75,-72.09375 z"
           style="fill:#28170b;stroke:none" />
        <path
           inkscape:connector-curvature="0"
           style="color:#000000;fill:#ececec;fill-opacity:1;fill-rule:nonzero;stroke:#823a58;stroke-width:1.04548109;stroke-linecap:butt;stroke-linejoin:miter;stroke-miterlimit:4;stroke-opacity:0.20454544;stroke-dasharray:none;stroke-dashoffset:0;marker:none;visibility:visible;display:inline;overflow:visible;enable-background:accumulate"
           id="path3026"
           d="m 310.64286,287.00504 c 14.39992,-11.91527 47.84746,-10.53818 50.06558,5.62146 -16.99841,9.75719 -34.07032,0.17456 -50.06558,-5.62146 z" />
        <path
           inkscape:connector-curvature="0"
           style="fill:#ececec;stroke:#823a58;stroke-opacity:0.20454544"
           id="path3024"
           transform="matrix(1.0570134,0,0,1.0340745,-11.799298,-9.0818588)"
           d="m 213.5,279.86218 c 9.02238,-9.92591 48.06738,-9.32625 38.59676,7.41667 -13.12004,3.64371 -28.71961,3.28689 -38.59676,-7.41667 z" />
        <path
           inkscape:connector-curvature="0"
           id="path3060"
           transform="translate(55.527582,64.9375)"
           d="m 167.0625,473.4375 c -0.36559,-0.005 -0.74741,0.0134 -1.125,0.0312 -6.54484,0.309 -14.83887,4.05806 -19.03125,7.53125 L 170.125,473.8437 c -0.9387,-0.25472 -1.96572,-0.39041 -3.0625,-0.40625 z m 56.28125,14 4.625,17.84375 c 0.17262,-6.22788 -1.23049,-12.56253 -4.625,-17.84375 z m -8.21875,11.25 c -26.1504,0.9671 -52.52291,10.8226 -73.21875,31.0625 L 215.125,498.6875 z m -99.28125,25.6875 c -1.40384,0.0102 -2.85952,0.1398 -4.3125,0.375 L 122.8125,532 c -5.87154,10.33444 -31.246934,20.64384 3.875,16.03125 0.81244,-2.59692 3.29298,-7.6752 3,-11.625 l 19.34375,12.4375 c -8.39661,-14.45764 -19.61703,-24.56701 -33.1875,-24.46875 z"
           style="fill:#2b0011;stroke:none" />
        <path
           inkscape:connector-curvature="0"
           id="path3052"
           transform="translate(55.527582,64.9375)"
           d="m 343.875,410.09375 c -2.43099,-0.078 -6.20759,0.99999 -11.625,3.75 -24.17287,17.99379 -50.42377,33.47377 -79.84375,40.9375 -7.07408,2.59046 -14.00205,5.76549 -20.15625,10.15625 33.9261,7.47377 67.90176,-8.63662 95.625,-26.96875 12.14124,-5.18195 26.53429,-27.53707 16,-27.875 z m 14.46875,42.6875 c -24.12544,5.91662 -46.5172,16.42276 -67.3125,29.875 -16.51503,13.16327 -50.59402,20.87815 -54,42.03125 15.2698,-5.0482 30.23873,-15.99885 45.03125,-24.0625 22.94123,-14.87914 49.03626,-24.88693 71.3125,-40.40625 l 4.96875,-7.4375 z"
           style="fill:#b3b3b3;stroke:none" />
        <path
           inkscape:connector-curvature="0"
           style="fill:#28170b;stroke:none"
           id="path3040"
           d="m 227.42857,276.29075 c 1.09447,20.68522 37.95752,1.82033 11.6392,-2.25293 -3.94069,-0.87899 -8.47021,-0.50123 -11.6392,2.25293 z" />
        <path
           inkscape:connector-curvature="0"
           style="fill:#28170b;stroke:none"
           id="path3044"
           d="m 331.17858,279.50504 c 2.17915,29.7023 37.17941,-3.4024 4.45991,-0.15707 z" />
        <path
           inkscape:connector-curvature="0"
           id="path3030"
           transform="translate(55.527582,64.9375)"
           d="m 195.125,284.5625 c -11.66832,5.43581 14.32423,15.21794 0,0 z m 31.9375,2.5 c -3.68434,0.0688 -7.77953,1.34053 -9.8125,4.65625 l 4.75,1.125 4.6875,0.625 c 12.97513,-2.33778 7.40874,-6.53767 0.375,-6.40625 z"
           style="fill:#1a1a1a;stroke:none" />
        <path
           inkscape:connector-curvature="0"
           style="fill:none;stroke:none"
           id="path3011"
           d="m 451.35714,340.93361 c -3.1736,8.77327 10.69533,11.25992 7.85715,20" />
        <path
           inkscape:connector-curvature="0"
           style="fill:#000000;stroke:none"
           id="path3142"
           transform="translate(108,0)"
           d="m 134.85536,278.33279 a 4.29315,3.7880734 0 1 1 -8.5863,0 4.29315,3.7880734 0 1 1 8.5863,0 z" />
        <path
           inkscape:connector-curvature="0"
           style="fill:#000000;stroke:none"
           id="path3144"
           transform="translate(210,6)"
           d="m 134.85536,278.33279 a 4.29315,3.7880734 0 1 1 -8.5863,0 4.29315,3.7880734 0 1 1 8.5863,0 z" />
        <path
           inkscape:connector-curvature="0"
           style="fill:#ffffff;stroke:none"
           id="path3138"
           transform="translate(106,0)"
           d="m 129.29953,276.81757 a 2.0203052,1.767767 0 1 1 -4.04061,0 2.0203052,1.767767 0 1 1 4.04061,0 z" />
        <path
           inkscape:connector-curvature="0"
           style="fill:#ffffff;stroke:none"
           id="path3140"
           transform="translate(210,6)"
           d="m 129.29953,276.81757 a 2.0203052,1.767767 0 1 1 -4.04061,0 2.0203052,1.767767 0 1 1 4.04061,0 z" />
      </g>
    </g>
  </g>
</svg>
