<svg 
      width="491" 
      height="312" 
      viewBox="0 0 491 312" 
      fill="none" 
      xmlns="http://www.w3.org/2000/svg"
      className="icon DashboardIcon">
      <path d="M190.052 247.728C185.68 232.717 173.316 221.175 157.258 220.798C147.91 220.572 138.864 224.57 130.948 229.096C120.243 235.282 107.578 242.674 94.762 240.788C86.5448 239.581 76.8198 234.98 74.8597 225.475C72.8242 215.367 80.9661 208.502 89.6357 204.429C97.099 200.959 107.578 192.661 110.895 184.665C124.163 153.133 86.9971 117.15 97.5514 81.1675C108.558 43.5254 159.294 37.1888 184.85 62.7613C187.263 65.1753 189.6 67.8155 191.635 70.6066C196.837 77.5466 199.928 86.976 207.165 92.1811C216.513 98.8948 228.726 96.7826 238.828 92.7846C258.127 85.1656 263.253 80.1114 282.1 71.889C295.67 66.0051 312.406 60.7246 327.635 65.9296C338.566 69.7014 350.628 76.4906 356.734 86.2971C368.118 104.552 362.991 124.166 380.934 150.115C389.076 161.883 402.042 165.127 412.295 173.651C439.058 195.678 430.086 241.995 400.911 257.912C376.938 270.963 347.462 267.945 321.528 264.626C319.568 264.4 317.533 264.098 315.573 263.796" stroke="#ADBBF9" stroke-miterlimit="10" stroke-linejoin="round" stroke-dasharray="3.5 3.5" />
      <path d="M379.577 76.7927C381.839 74.2279 383.799 71.3614 385.457 68.1931C387.116 65.0248 388.322 61.7811 389.227 58.462L380.331 55.2937C381.009 52.2009 381.311 49.108 381.16 46.0152L390.508 44.5819C390.056 37.6419 387.945 30.8527 384.402 24.8179L375.883 28.8914C374.225 26.2511 372.264 23.8372 369.927 21.725L375.506 14.1061C372.943 11.843 370.078 9.8817 366.912 8.22213C363.746 6.56255 360.504 5.35559 357.187 4.45037L354.021 13.3517C350.93 12.6728 347.839 12.3711 344.748 12.5219L343.316 3.16797C336.38 3.62058 329.595 5.73277 323.564 9.27822L327.635 17.8024C324.996 19.462 322.584 21.4233 320.473 23.7618L312.859 18.1796C310.597 20.7444 308.637 23.6109 306.979 26.7792C305.32 29.9475 304.114 33.1912 303.209 36.5103L312.105 39.6786C311.427 42.7714 311.125 45.8643 311.276 48.9571L301.928 50.3904C302.38 57.3304 304.491 64.1196 308.034 70.1544L316.553 66.0809C318.211 68.7212 320.172 71.1351 322.509 73.2473L316.93 80.8662C319.493 83.1293 322.358 85.0906 325.524 86.7502C328.69 88.4097 331.932 89.6167 335.249 90.5219L338.415 81.6206C341.506 82.2995 344.597 82.6012 347.688 82.4504L349.12 91.8043C356.056 91.3517 362.841 89.2395 368.872 85.6941L364.801 77.1699C367.44 75.5103 369.852 73.549 371.963 71.2105L379.577 76.7927ZM335.852 67.137C324.996 61.4039 320.85 47.9765 326.58 37.1138C332.309 26.2511 345.728 22.1022 356.584 27.8353C367.44 33.5684 371.586 46.9958 365.856 57.8585C360.127 68.7212 346.708 72.8701 335.852 67.137ZM338.868 61.4039C331.178 57.3304 328.238 47.8256 332.309 40.1312C336.38 32.4368 345.879 29.4949 353.568 33.5684C361.258 37.6419 364.198 47.1467 360.127 54.8411C356.131 62.5355 346.557 65.4774 338.868 61.4039Z" fill="#E4E9F9" />
      <path d="M177.086 98.292C178.292 96.557 179.347 94.6711 180.177 92.6344C181.006 90.5976 181.534 88.4854 181.911 86.4487L176.256 85.0154C176.483 83.0541 176.483 81.1682 176.181 79.2069L181.835 77.6982C181.157 73.4738 179.423 69.4003 176.86 65.9303L171.809 68.9477C170.678 67.439 169.245 66.0812 167.738 64.8742L170.678 59.82C168.944 58.6131 167.059 57.557 165.024 56.7272C162.988 55.8974 160.877 55.3694 158.842 54.9922L157.41 60.6498C155.449 60.4235 153.565 60.4235 151.605 60.7253L150.097 55.0676C145.875 55.7465 141.804 57.4815 138.336 60.0463L141.352 65.1005C139.844 66.232 138.487 67.6653 137.281 69.174L132.23 66.232C131.024 67.967 129.968 69.8529 129.139 71.8897C128.31 73.9264 127.782 76.0386 127.405 78.0754L133.059 79.5086C132.833 81.4699 132.833 83.3558 133.135 85.3171L127.481 86.8258C128.159 91.0502 129.893 95.1237 132.456 98.5937L137.507 95.5763C138.638 97.085 140.07 98.4429 141.578 99.6498L138.638 104.704C140.372 105.911 142.257 106.967 144.292 107.797C146.328 108.627 148.438 109.155 150.474 109.532L151.906 103.874C153.866 104.1 155.751 104.101 157.711 103.799L159.219 109.456C163.441 108.777 167.512 107.042 170.979 104.478L167.964 99.4235C169.472 98.292 170.829 96.8587 172.035 95.35L177.086 98.292ZM149.569 94.9728C142.558 92.1063 139.166 84.1102 142.03 77.0947C144.895 70.0792 152.886 66.6846 159.897 69.5512C166.908 72.4177 170.301 80.4138 167.436 87.4293C164.571 94.4448 156.58 97.8394 149.569 94.9728ZM151.077 91.352C146.101 89.3152 143.689 83.6576 145.724 78.6034C147.76 73.6247 153.414 71.2108 158.465 73.2475C163.441 75.2843 165.853 80.9419 163.818 85.9961C161.707 90.9748 156.053 93.3133 151.077 91.352Z" fill="#E4E9F9" />
      <path d="M199.626 45.9403C200.607 44.8088 201.436 43.6018 202.19 42.244C202.944 40.8862 203.471 39.4529 203.848 38.0196L200.003 36.6618C200.305 35.304 200.456 33.9461 200.38 32.6637L204.451 32.0603C204.225 29.0429 203.321 26.1009 201.813 23.5361L198.119 25.2711C197.44 24.1396 196.536 23.0835 195.556 22.1783L197.968 18.8591C196.837 17.8784 195.631 17.0487 194.274 16.2943C192.917 15.54 191.485 15.0119 190.052 14.6347L188.695 18.4819C187.338 18.1802 185.981 18.0293 184.7 18.1048L184.097 14.0312C181.081 14.2576 178.141 15.1628 175.578 16.6715L177.161 20.3678C176.03 21.0467 174.975 21.9519 174.07 22.9326L170.753 20.5187C169.773 21.6502 168.944 22.8572 168.19 24.215C167.436 25.5728 166.908 27.0061 166.531 28.4394L170.376 29.7972C170.075 31.155 169.924 32.5129 169.999 33.7953L165.928 34.3988C166.154 37.4162 167.059 40.3581 168.567 42.9229L172.261 41.1879C172.939 42.3194 173.844 43.3755 174.824 44.2808L172.412 47.5999C173.542 48.5806 174.749 49.4104 176.106 50.1647C177.463 50.9191 178.895 51.4471 180.327 51.8243L181.684 47.9771C183.041 48.2788 184.398 48.4297 185.68 48.3543L186.283 52.4278C189.298 52.2015 192.239 51.2962 194.802 49.7875L193.068 46.0912C194.199 45.4123 195.254 44.5071 196.159 43.5264L199.626 45.9403ZM181.986 39.3775C178.593 37.567 177.312 33.4181 179.121 30.0235C180.93 26.6289 185.077 25.3465 188.469 27.157C191.862 28.9674 193.143 33.1164 191.334 36.5109C189.525 39.8301 185.378 41.1879 181.986 39.3775Z" fill="#E4E9F9" />
      <path d="M108.558 106.137C108.558 105.609 108.483 105.081 108.407 104.553C107.88 99.8755 104.713 100.328 102.678 100.404C100.718 100.554 98.2301 100.63 97.2501 98.4423C96.7978 97.4616 96.8732 96.3301 96.5716 95.3494C95.9685 93.0864 93.933 91.7285 92.0483 91.7285C90.0883 91.7285 88.279 92.8601 86.6958 94.2179C85.8666 94.8968 84.9619 95.802 83.9819 95.5003C83.3788 95.3494 82.851 94.7459 82.4741 94.067C80.2125 90.3707 80.2125 84.9394 77.7247 81.4693C74.9353 77.6221 69.809 77.5467 66.3411 80.3378C62.8733 83.1289 60.8378 88.1076 59.9332 93.1618C59.6316 94.8214 59.4055 96.5564 58.35 97.6879C56.9177 99.2721 54.7314 98.744 52.7714 98.5177C50.5097 98.2914 48.1727 98.6686 46.3634 100.253C44.8556 101.611 43.951 103.949 44.1018 106.137H108.558Z" fill="white" stroke="#ADBBF9" stroke-miterlimit="10" stroke-linejoin="round" />
      <path d="M237.697 24.9691H301.174C301.174 24.9691 298.61 22.0271 295.746 20.971C292.127 19.6886 290.619 23.234 288.358 18.6325C287.076 16.0677 286.171 12.6731 282.779 11.7679C277.502 10.4101 276.145 14.7853 273.657 13.5783C271.471 12.5222 271.546 8.37331 269.285 4.90329C267.098 1.50871 261.821 -0.528044 258.203 1.20697C251.568 4.45068 252.473 9.58027 250.287 11.2398C248.176 12.8994 243.276 7.01548 237.773 13.352C233.928 17.8781 237.697 24.9691 237.697 24.9691Z" fill="white" stroke="#ADBBF9" stroke-miterlimit="10" stroke-linejoin="round" />
      <path d="M303.963 3.16806C303.963 4.67676 302.681 5.95916 301.174 5.95916C299.666 5.95916 298.384 4.67676 298.384 3.16806C298.384 1.65935 299.666 0.376953 301.174 0.376953C302.681 0.376953 303.963 1.65935 303.963 3.16806Z" stroke="#ADBBF9" stroke-miterlimit="10" stroke-linejoin="round" />
      <path d="M487.457 227.738C487.457 229.247 486.175 230.529 484.667 230.529C483.16 230.529 481.878 229.247 481.878 227.738C481.878 226.23 483.16 224.947 484.667 224.947C486.175 224.947 487.457 226.154 487.457 227.738Z" stroke="#ADBBF9" stroke-miterlimit="10" stroke-linejoin="round" />
      <path d="M354.473 112.247C354.473 113.756 353.191 115.038 351.683 115.038C350.176 115.038 348.894 113.756 348.894 112.247C348.894 110.738 350.176 109.456 351.683 109.456C353.191 109.456 354.473 110.738 354.473 112.247Z" stroke="#ADBBF9" stroke-miterlimit="10" stroke-linejoin="round" />
      <path d="M10.0264 145.288C10.0264 146.797 8.74485 148.079 7.2371 148.079C5.72934 148.079 4.44775 146.797 4.44775 145.288C4.44775 143.779 5.72934 142.497 7.2371 142.497C8.82024 142.497 10.0264 143.779 10.0264 145.288Z" stroke="#ADBBF9" stroke-miterlimit="10" stroke-linejoin="round" />
      <path d="M123.636 40.8858C123.636 42.3945 122.354 43.6769 120.846 43.6769C119.339 43.6769 118.057 42.3945 118.057 40.8858C118.057 39.3771 119.339 38.0947 120.846 38.0947C122.43 38.0947 123.636 39.3017 123.636 40.8858Z" stroke="#ADBBF9" stroke-miterlimit="10" stroke-linejoin="round" />
      <path d="M156.656 28.2121C156.656 29.2681 155.826 30.0979 154.771 30.0979C153.715 30.0979 152.886 29.2681 152.886 28.2121C152.886 27.156 153.715 26.3262 154.771 26.3262C155.826 26.3262 156.656 27.156 156.656 28.2121Z" stroke="#ADBBF9" stroke-miterlimit="10" stroke-linejoin="round" />
      <path d="M464.916 162.261C464.916 163.317 464.087 164.147 463.031 164.147C461.976 164.147 461.146 163.317 461.146 162.261C461.146 161.205 461.976 160.375 463.031 160.375C464.087 160.375 464.916 161.205 464.916 162.261Z" stroke="#ADBBF9" stroke-miterlimit="10" stroke-linejoin="round" />
      <path d="M327.409 101.46C328.45 101.46 329.293 100.616 329.293 99.5744C329.293 98.5328 328.45 97.6885 327.409 97.6885C326.368 97.6885 325.524 98.5328 325.524 99.5744C325.524 100.616 326.368 101.46 327.409 101.46Z" stroke="#ADBBF9" stroke-miterlimit="10" stroke-linejoin="round" />
      <path d="M403.776 51.8996C403.776 52.9556 402.947 53.7854 401.892 53.7854C400.836 53.7854 400.007 52.9556 400.007 51.8996C400.007 50.8435 400.836 50.0137 401.892 50.0137C402.872 50.0137 403.776 50.8435 403.776 51.8996Z" stroke="#ADBBF9" stroke-miterlimit="10" stroke-linejoin="round" />
      <path d="M399.705 190.7C399.705 191.756 398.876 192.586 397.821 192.586C396.765 192.586 395.936 191.756 395.936 190.7C395.936 189.644 396.765 188.814 397.821 188.814C398.876 188.814 399.705 189.644 399.705 190.7Z" stroke="#ADBBF9" stroke-miterlimit="10" stroke-linejoin="round" />
      <path d="M105.92 208.805C105.92 209.861 105.091 210.691 104.035 210.691C102.98 210.691 102.15 209.861 102.15 208.805C102.15 207.749 102.98 206.919 104.035 206.919C105.091 206.919 105.92 207.749 105.92 208.805Z" stroke="#ADBBF9" stroke-miterlimit="10" stroke-linejoin="round" />
      <path d="M111.574 122.28C111.574 123.337 110.744 124.166 109.689 124.166C108.633 124.166 107.804 123.337 107.804 122.28C107.804 121.224 108.633 120.395 109.689 120.395C110.744 120.395 111.574 121.224 111.574 122.28Z" stroke="#ADBBF9" stroke-miterlimit="10" stroke-linejoin="round" />
      <path d="M476.525 135.179H473.962C473.51 135.179 473.133 134.802 473.133 134.35V131.785C473.133 131.332 473.51 130.955 473.962 130.955H476.525C476.978 130.955 477.355 131.332 477.355 131.785V134.35C477.355 134.802 477.053 135.179 476.525 135.179Z" fill="#E4E9F9" />
      <path d="M86.6957 222.383H84.1325C83.6802 222.383 83.3032 222.005 83.3032 221.553V218.988C83.3032 218.535 83.6802 218.158 84.1325 218.158H86.6957C87.148 218.158 87.5249 218.535 87.5249 218.988V221.553C87.5249 222.005 87.148 222.383 86.6957 222.383Z" fill="#E4E9F9" />
      <path d="M82.3231 68.0427H79.7599C79.3076 68.0427 78.9307 67.6656 78.9307 67.2129V64.6481C78.9307 64.1955 79.3076 63.8184 79.7599 63.8184H82.3231C82.7754 63.8184 83.1524 64.1955 83.1524 64.6481V67.2129C83.1524 67.6656 82.7754 68.0427 82.3231 68.0427Z" fill="#E4E9F9" />
      <path d="M407.697 38.0948H402.797C401.892 38.0948 401.213 37.4158 401.213 36.5106V31.6828C401.213 30.7775 401.892 30.0986 402.797 30.0986H407.697C408.601 30.0986 409.28 30.7775 409.28 31.6828V36.5861C409.28 37.4158 408.601 38.0948 407.697 38.0948Z" fill="#E4E9F9" />
      <path d="M362.313 159.545H359.75C359.298 159.545 358.921 159.168 358.921 158.715V156.15C358.921 155.697 359.298 155.32 359.75 155.32H362.313C362.766 155.32 363.143 155.697 363.143 156.15V158.715C363.143 159.168 362.766 159.545 362.313 159.545Z" fill="#E4E9F9" />
      <path d="M304.642 129.522C304.642 129.145 304.717 128.768 304.717 128.391C305.169 124.996 307.808 125.373 309.391 125.449C311.05 125.524 313.085 125.6 313.839 124.016C314.216 123.337 314.14 122.507 314.367 121.753C314.894 120.093 316.553 119.112 318.136 119.112C319.719 119.112 321.227 119.867 322.508 120.847C326.73 124.016 327.936 115.642 329.896 113.228C332.158 110.437 336.38 108.929 339.245 110.89C342.109 112.927 343.768 116.472 344.522 120.093C344.748 121.3 344.823 122.733 345.803 123.337C348.593 125.223 352.136 121.526 355.528 124.393C356.734 125.373 356.961 127.787 356.81 129.371H304.642V129.522Z" fill="white" stroke="#ADBBF9" stroke-miterlimit="10" stroke-linejoin="round" />
      <path d="M96.949 301.967C87.5255 287.709 67.6986 251.651 84.887 239.28C94.3104 232.491 106.825 238.676 112.856 253.688C118.585 267.945 120.772 284.843 123.184 301.816" fill="white" />
      <path d="M97.175 301.815C95.0642 298.572 93.1041 295.328 91.2194 291.933C88.9578 287.86 86.7715 283.635 84.8868 279.336C82.9268 274.885 81.2682 270.359 79.9866 265.682C78.9312 261.457 78.1773 257.082 78.4035 252.782C78.6297 249.086 79.6097 245.314 82.0221 242.297C84.5099 239.129 88.3547 236.941 92.4256 236.79C96.8735 236.564 101.02 238.676 104.261 241.543C108.559 245.39 111.273 250.519 113.308 255.951C115.645 262.287 117.304 268.926 118.661 275.488C120.017 282.504 121.073 289.519 122.053 296.61C122.279 298.345 122.581 300.08 122.807 301.891C122.882 302.268 123.485 302.117 123.41 301.74C122.355 294.498 121.374 287.256 120.093 280.015C118.887 273.15 117.379 266.285 115.193 259.647C113.308 253.839 111.046 248.181 106.975 243.504C103.96 240.034 99.889 237.167 95.2903 236.488C91.0686 235.81 86.9223 237.167 83.6053 239.883C80.6651 242.297 78.9312 245.767 78.1773 249.463C77.3481 253.612 77.6496 257.912 78.4789 262.061C79.3835 266.813 80.8913 271.415 82.7006 275.941C84.5099 280.467 86.6208 284.918 88.8824 289.218C90.8425 292.914 93.0287 296.61 95.2903 300.156C95.7427 300.835 96.195 301.514 96.6473 302.268C96.9489 302.268 97.3258 302.042 97.175 301.815Z" fill="#ADBBF9" />
      <path d="M89.7114 237.093L112.026 301.967" stroke="#ADBBF9" stroke-miterlimit="10" stroke-linejoin="round" />
      <path d="M59.0288 301.967C50.887 291.406 33.0201 264.777 47.8715 255.574C56.0133 250.52 66.0399 255.122 71.2416 266.211C76.2172 276.772 78.1019 289.218 80.1374 301.816" fill="white" />
      <path d="M59.255 301.816C55.3348 296.611 51.6408 291.18 48.6253 285.447C46.8914 282.278 45.3837 278.959 44.1775 275.489C43.1974 272.472 42.4435 269.228 42.5189 265.984C42.5943 263.193 43.3482 260.402 45.1575 258.215C47.2684 255.725 50.51 254.066 53.7517 253.764C57.2949 253.462 60.7627 254.745 63.6275 256.857C67.0953 259.422 69.5831 263.118 71.317 267.04C75.6895 276.696 77.4988 287.408 79.1573 297.818C79.3835 299.176 79.6097 300.534 79.8358 301.816C79.9112 302.193 80.5143 302.042 80.4389 301.665C78.705 290.878 77.1219 279.864 73.0509 269.605C71.317 265.305 69.2062 261.157 65.8137 257.913C63.0998 255.423 59.7827 253.538 56.0133 253.16C52.5455 252.859 49.0777 253.99 46.3637 256.178C44.1021 257.988 42.6697 260.553 42.142 263.42C41.6143 266.512 41.9912 269.681 42.7451 272.698C43.6497 276.244 45.0067 279.638 46.5899 282.882C49.6808 289.143 53.4501 295.027 57.6719 300.609C58.0488 301.137 58.4257 301.59 58.8027 302.118C59.0288 302.344 59.4058 302.042 59.255 301.816Z" fill="#ADBBF9" />
      <path d="M52.0933 253.99L71.3171 301.967" stroke="#ADBBF9" stroke-miterlimit="10" stroke-linejoin="round" />
      <path d="M154.394 301.816C132.08 261.232 117.605 221.025 135.698 201.94C153.565 183.006 172.261 205.41 176.785 225.325C182.363 249.69 183.193 276.017 183.042 301.816" fill="white" />
      <path d="M154.394 301.816C132.08 261.232 117.605 221.025 135.698 201.94C153.565 183.006 172.261 205.41 176.785 225.325C182.363 249.69 183.193 276.017 183.042 301.816" stroke="#ADBBF9" stroke-miterlimit="10" stroke-linejoin="round" />
      <path d="M142.257 197.036L169.095 301.74" stroke="#ADBBF9" stroke-miterlimit="10" stroke-linejoin="round" />
      <path d="M120.847 301.891C111.951 280.468 91.9732 237.017 106.071 223.665C115.042 215.065 131.326 225.626 139.694 244.334C147.609 262.137 150.022 280.468 154.771 301.665" fill="white" />
      <path d="M121.073 301.891C119.113 297.064 117.002 292.236 115.042 287.332C112.705 281.675 110.519 275.942 108.483 270.133C106.448 264.325 104.638 258.516 103.357 252.481C102.226 247.352 101.397 241.996 101.623 236.715C101.774 232.642 102.678 228.342 105.241 225.098C106.598 223.439 108.332 222.156 110.292 221.477C112.328 220.799 114.59 220.798 116.7 221.251C122.128 222.458 126.802 226.305 130.421 230.303C135.397 235.735 138.789 242.298 141.428 249.087C144.292 256.328 146.328 263.872 148.137 271.416C150.022 279.412 151.53 287.408 153.188 295.404C153.64 297.516 154.093 299.553 154.545 301.665C154.62 302.042 155.224 301.891 155.148 301.514C153.263 293.216 151.68 284.843 149.871 276.47C148.212 268.7 146.328 261.005 143.689 253.462C141.201 246.296 138.186 239.205 133.587 233.094C130.044 228.342 125.521 223.967 119.942 221.628C115.796 219.893 110.971 219.516 107.126 222.307C103.734 224.721 102 228.644 101.321 232.642C100.492 237.621 100.944 242.675 101.774 247.653C102.754 253.613 104.412 259.497 106.222 265.305C108.182 271.34 110.368 277.224 112.705 283.108C114.816 288.388 117.002 293.518 119.188 298.723C119.641 299.779 120.093 300.835 120.545 301.967C120.771 302.269 121.224 302.118 121.073 301.891Z" fill="#ADBBF9" />
      <path d="M294.012 301.816C286.474 215.518 304.793 183.911 324.846 182.553C334.345 181.874 362.163 187.381 328.54 301.816" fill="white" />
      <path d="M294.163 301.816C293.56 292.688 292.881 283.56 292.655 274.433C292.429 266.663 292.504 258.818 292.881 251.048C293.183 244.485 293.786 237.922 294.691 231.435C295.445 226.079 296.5 220.798 297.857 215.518C298.988 211.218 300.42 207.069 302.154 202.996C303.586 199.752 305.32 196.584 307.431 193.717C309.165 191.379 311.125 189.191 313.462 187.381C315.422 185.872 317.609 184.589 319.946 183.835C321.755 183.232 323.64 182.854 325.6 182.779C326.58 182.779 327.635 182.779 328.464 182.93C329.595 183.081 330.726 183.382 331.781 183.835C332.912 184.288 334.194 185.042 335.174 185.796C336.456 186.777 337.511 187.984 338.416 189.342C339.622 191.001 340.526 192.887 341.205 194.773C342.185 197.263 342.788 199.827 343.316 202.468C343.919 205.862 344.22 209.332 344.371 212.802C344.522 217.253 344.371 221.704 344.07 226.154C343.693 231.812 342.939 237.394 342.11 242.976C341.054 249.841 339.697 256.705 338.265 263.495C336.456 271.792 334.42 279.94 332.158 288.162C330.952 292.688 329.746 297.214 328.389 301.74C328.314 302.042 328.766 302.117 328.841 301.891C330.198 297.214 331.631 292.537 332.912 287.86C334.118 283.56 335.174 279.185 336.305 274.81C338.114 267.266 339.848 259.723 341.205 252.179C342.336 246.069 343.316 239.883 343.994 233.622C344.522 228.644 344.974 223.665 345.05 218.611C345.125 214.688 345.05 210.69 344.597 206.767C344.296 203.75 343.768 200.733 342.939 197.791C342.336 195.528 341.506 193.34 340.376 191.303C339.546 189.719 338.491 188.21 337.209 186.852C336.154 185.796 335.023 184.816 333.742 184.137C332.611 183.533 331.48 183.005 330.198 182.704C329.143 182.402 328.087 182.251 326.957 182.251C325.675 182.176 324.393 182.251 323.187 182.477C320.775 182.854 318.513 183.684 316.402 184.816C314.065 186.098 311.955 187.833 310.07 189.794C307.808 192.133 305.924 194.849 304.34 197.64C302.38 201.11 300.797 204.806 299.44 208.578C297.857 213.255 296.575 218.007 295.671 222.835C294.465 228.719 293.711 234.678 293.183 240.638C292.504 247.804 292.203 255.046 292.203 262.212C292.128 270.812 292.429 279.336 292.881 287.86C293.183 292.462 293.485 297.139 294.012 301.74C293.937 301.967 294.163 301.967 294.163 301.816Z" fill="#ADBBF9" />
      <path d="M328.766 182.703L311.05 301.74" stroke="#ADBBF9" stroke-miterlimit="10" stroke-linejoin="round" />
      <path d="M353.267 301.815C359.373 250.519 380.105 220.949 398.801 228.945C414.105 235.508 406.189 264.097 382.367 301.74" fill="white" />
      <path d="M353.418 301.815C354.096 297.516 354.624 293.216 355.453 288.916C356.207 284.918 357.037 280.995 358.017 276.997C359.751 270.057 361.861 263.268 364.651 256.63C366.912 251.274 369.551 246.069 372.868 241.316C375.431 237.62 378.522 234.15 382.216 231.51C385.081 229.473 388.473 227.964 392.092 227.889C395.409 227.738 399.027 228.719 401.591 230.906C404.38 233.169 405.737 236.564 406.189 240.109C406.792 244.937 405.963 249.841 404.757 254.518C403.098 261.005 400.611 267.266 397.821 273.376C394.278 281.071 390.132 288.463 385.835 295.705C384.628 297.667 383.422 299.628 382.291 301.665C382.141 301.891 382.518 302.117 382.668 301.891C385.307 297.968 387.719 293.819 390.056 289.67C392.167 285.974 394.203 282.202 396.087 278.355C399.254 271.943 402.194 265.305 404.305 258.44C405.888 253.386 407.094 248.106 407.019 242.75C406.943 238.978 406.114 235.055 403.701 232.113C401.515 229.398 398.123 227.889 394.655 227.436C391.187 226.984 387.644 227.814 384.553 229.398C380.784 231.359 377.542 234.452 374.903 237.696C371.436 241.995 368.571 246.823 366.234 251.802C363.294 257.988 360.957 264.55 359.072 271.113C356.81 279.034 355.152 287.181 353.946 295.328C353.644 297.44 353.343 299.628 353.192 301.74C353.116 301.966 353.418 302.042 353.418 301.815Z" fill="#ADBBF9" />
      <path d="M398.801 228.945L368.269 301.74" stroke="#ADBBF9" stroke-miterlimit="10" stroke-linejoin="round" />
      <path d="M110.971 221.024L138.336 301.966" stroke="#ADBBF9" stroke-miterlimit="10" stroke-linejoin="round" />
      <path d="M355.604 301.891C367.666 276.243 392.016 217.781 373.697 197.036C363.595 185.645 345.2 199.601 335.4 224.721C326.127 248.558 319.192 273.15 313.387 301.514" fill="white" />
      <path d="M355.755 302.042C358.544 296.082 361.258 290.123 363.746 284.088C366.761 276.771 369.626 269.303 372.114 261.759C374.677 254.065 376.863 246.22 378.446 238.224C379.879 231.057 380.783 223.74 380.482 216.498C380.18 210.614 379.05 204.579 375.808 199.525C374.375 197.262 372.491 195.15 370.078 193.943C367.741 192.812 365.103 192.585 362.615 193.038C359.599 193.641 356.81 195.15 354.322 196.961C351.231 199.224 348.593 201.939 346.18 204.957C343.316 208.578 340.828 212.5 338.717 216.574C336.38 221.1 334.571 225.928 332.761 230.68C329.067 240.562 325.826 250.67 322.886 260.779C319.795 271.491 317.156 282.353 314.744 293.291C314.141 296.082 313.538 298.873 313.01 301.665C312.935 302.042 313.538 302.268 313.613 301.815C315.875 290.802 318.362 279.864 321.227 269.077C323.941 258.893 327.032 248.86 330.5 238.903C332.234 233.999 333.968 229.171 335.852 224.343C337.662 219.817 339.848 215.367 342.486 211.218C344.748 207.672 347.311 204.278 350.251 201.26C352.664 198.846 355.453 196.583 358.544 195.075C360.956 193.868 363.67 193.189 366.384 193.491C369.023 193.792 371.36 195.15 373.094 197.111C376.939 201.336 378.748 207.069 379.426 212.651C380.256 219.516 379.728 226.531 378.597 233.396C377.316 241.241 375.356 248.935 373.018 256.554C370.681 264.173 367.968 271.641 365.027 279.109C362.464 285.521 359.75 291.858 356.886 298.195C356.282 299.477 355.755 300.684 355.152 301.966C355.227 302.042 355.679 302.268 355.755 302.042Z" fill="#ADBBF9" />
      <path d="M368.269 193.415L335.928 301.966" stroke="#ADBBF9" stroke-miterlimit="10" stroke-linejoin="round" />
      <path d="M376.939 301.815C392.846 269.529 406.717 261.005 419.684 263.57C429.786 265.606 431.369 280.467 410.034 301.815" fill="white" />
      <path d="M377.014 301.891C378.522 299.25 379.803 296.535 381.311 293.895C382.593 291.556 383.95 289.218 385.382 286.955C387.795 283.107 390.433 279.411 393.373 276.016C395.635 273.376 398.198 270.811 400.987 268.699C403.249 267.04 405.661 265.606 408.3 264.626C410.562 263.796 412.974 263.419 415.386 263.419C417.573 263.419 419.91 263.645 421.87 264.626C423.679 265.531 425.036 267.04 425.715 268.925C426.619 271.264 426.544 273.829 426.092 276.243C425.413 279.788 423.905 283.107 422.096 286.2C419.533 290.575 416.291 294.573 412.899 298.345C411.843 299.477 410.863 300.533 409.808 301.664C409.582 301.891 409.883 302.192 410.109 301.966C412.371 299.929 414.406 297.666 416.291 295.328C417.95 293.367 419.457 291.33 420.89 289.218C423.076 285.898 425.036 282.353 426.167 278.506C426.921 275.866 427.373 273.074 426.77 270.359C426.318 268.322 425.262 266.361 423.604 265.078C421.794 263.72 419.608 263.192 417.422 262.966C415.01 262.74 412.522 262.891 410.185 263.494C407.546 264.173 405.058 265.305 402.721 266.738C399.857 268.548 397.369 270.736 395.032 273.225C392.092 276.318 389.453 279.788 387.041 283.334C383.95 287.935 381.236 292.688 378.673 297.591C377.919 298.949 377.24 300.382 376.637 301.815C376.713 301.891 376.939 302.042 377.014 301.891Z" fill="#ADBBF9" />
      <path d="M418.402 263.721L394.052 301.815" stroke="#ADBBF9" stroke-miterlimit="10" stroke-linejoin="round" />
      <path d="M178.744 301.666C174.9 301.666 171.733 298.497 171.733 294.65V45.3368C171.733 41.4896 174.9 38.3213 178.744 38.3213H311.05C314.895 38.3213 318.061 41.4896 318.061 45.3368V294.65C318.061 298.497 314.895 301.666 311.05 301.666H178.744Z" fill="#849CF4" />
      <path d="M311.05 38.6225C314.744 38.6225 317.684 41.6399 317.684 45.2608V294.574C317.684 298.27 314.668 301.212 311.05 301.212H178.744C175.05 301.212 172.11 298.195 172.11 294.574V45.3362C172.11 41.6399 175.126 38.698 178.744 38.698H311.05V38.6225ZM311.05 37.8682H178.744C174.674 37.8682 171.356 41.1873 171.356 45.2608V294.574C171.356 298.648 174.674 301.967 178.744 301.967H311.05C315.121 301.967 318.438 298.648 318.438 294.574V45.3362C318.513 41.1873 315.196 37.8682 311.05 37.8682Z" fill="#849CF4" />
      <path d="M251.644 289.897C251.644 293.594 248.629 296.611 244.935 296.611C241.241 296.611 238.225 293.594 238.225 289.897C238.225 286.201 241.241 283.184 244.935 283.184C248.629 283.184 251.644 286.201 251.644 289.897Z" stroke="#4643BF" stroke-miterlimit="10" />
      <path d="M279.764 9.27832L169.698 308.681H201.662L311.804 9.27832H279.764Z" fill="url(#paint0_linear)" />
      <path d="M321.679 9.27832L211.613 308.681H225.183L335.249 9.27832H321.679Z" fill="url(#paint1_linear)" />
      <path d="M317.382 62.46H172.562V277.375H317.382V62.46Z" fill="white" />
      <path d="M236.642 48.8818H256.997C257.449 48.8818 257.826 49.259 257.826 49.7116C257.826 50.1642 257.449 50.5414 256.997 50.5414H236.642C236.19 50.5414 235.813 50.1642 235.813 49.7116C235.813 49.1836 236.19 48.8818 236.642 48.8818Z" stroke="#4643BF" stroke-miterlimit="10" />
      <path d="M232.119 50.4662C232.577 50.4662 232.948 50.0947 232.948 49.6364C232.948 49.1782 232.577 48.8066 232.119 48.8066C231.661 48.8066 231.29 49.1782 231.29 49.6364C231.29 50.0947 231.661 50.4662 232.119 50.4662Z" stroke="#4643BF" stroke-miterlimit="10" />
      <path d="M244.935 145.741H182.438V208.956H244.935V145.741Z" fill="#D3DBF4" />
      <path d="M226.446 170.335C227.587 163.261 222.781 156.601 215.711 155.459C208.642 154.318 201.986 159.127 200.845 166.201C199.704 173.275 204.51 179.935 211.58 181.077C218.65 182.218 225.306 177.409 226.446 170.335Z" stroke="white" stroke-miterlimit="10" />
      <path d="M213.649 181.196C218.562 181.196 222.544 175.387 222.544 168.221C222.544 161.055 218.562 155.246 213.649 155.246C208.736 155.246 204.753 161.055 204.753 168.221C204.753 175.387 208.736 181.196 213.649 181.196Z" stroke="white" stroke-miterlimit="10" />
      <path d="M213.649 181.196C215.564 181.196 217.117 175.387 217.117 168.221C217.117 161.055 215.564 155.246 213.649 155.246C211.734 155.246 210.181 161.055 210.181 168.221C210.181 175.387 211.734 181.196 213.649 181.196Z" stroke="white" stroke-miterlimit="10" />
      <path d="M200.758 168.221H226.616" stroke="white" stroke-miterlimit="10" />
      <path d="M202.115 174.03C204.603 173.2 208.824 172.672 213.724 172.672C218.549 172.672 222.846 173.2 225.334 174.03" stroke="white" stroke-miterlimit="10" />
      <path d="M205.884 178.555C208.145 177.725 210.784 177.197 213.724 177.197C216.589 177.197 219.227 177.65 221.489 178.48" stroke="white" stroke-miterlimit="10" />
      <path d="M202.115 162.563C204.603 163.393 208.824 163.921 213.724 163.921C218.549 163.921 222.846 163.393 225.334 162.563" stroke="white" stroke-miterlimit="10" />
      <path d="M205.884 158.037C208.145 158.867 210.784 159.395 213.724 159.395C216.589 159.395 219.227 158.942 221.489 158.113" stroke="white" stroke-miterlimit="10" />
      <path d="M187.779 197.657H239.646V194.338H187.779V197.657Z" fill="#E3EAFC" />
      <path d="M208.648 191.412H239.633V188.093H208.648V191.412Z" fill="#E3EAFC" />
      <path d="M205.055 188.061H187.716V191.38H205.055V188.061Z" fill="#E3EAFC" />
      <path d="M187.779 203.826H239.646V200.507H187.779V203.826Z" fill="#E3EAFC" />
      <path d="M307.356 145.741H244.859V208.956H307.356V145.741Z" fill="#F0F1FF" />
      <path d="M250.152 160.338H302.019V157.019H250.152V160.338Z" fill="#E4E9F9" />
      <path d="M250.152 166.583H302.019V163.264H250.152V166.583Z" fill="#E4E9F9" />
      <path d="M250.17 172.752H266.303V169.433H250.17V172.752Z" fill="#E4E9F9" />
      <path d="M270.627 172.752H301.988V169.433H270.627V172.752Z" fill="#E4E9F9" />
      <path d="M250.152 178.997H302.019V175.678H250.152V178.997Z" fill="#E4E9F9" />
      <path d="M250.152 185.167H302.019V181.848H250.152V185.167Z" fill="#E4E9F9" />
      <path d="M250.152 191.412H302.019V188.093H250.152V191.412Z" fill="#E4E9F9" />
      <path d="M287.041 197.657H302.043V194.338H287.041V197.657Z" fill="#E4E9F9" />
      <path d="M250.144 197.657H283.466V194.338H250.144V197.657Z" fill="#E4E9F9" />
      <path d="M250.152 203.826H302.019V200.507H250.152V203.826Z" fill="#E4E9F9" />
      <path d="M288.357 154.093H302.077V150.774H288.357V154.093Z" fill="#E4E9F9" />
      <path d="M284.815 150.796H250.212V154.115H284.815V150.796Z" fill="#E4E9F9" />
      <path d="M244.935 208.956H182.438V272.171H244.935V208.956Z" fill="#F0F1FF" />
      <path d="M239.583 257.461H187.716V260.78H239.583V257.461Z" fill="#E4E9F9" />
      <path d="M239.583 251.274H187.716V254.594H239.583V251.274Z" fill="#E4E9F9" />
      <path d="M239.582 245.089H226.239V248.408H239.582V245.089Z" fill="#E4E9F9" />
      <path d="M221.942 245.089H187.791V248.408H221.942V245.089Z" fill="#E4E9F9" />
      <path d="M239.583 238.828H187.716V242.147H239.583V238.828Z" fill="#E4E9F9" />
      <path d="M239.583 232.643H187.716V235.962H239.583V232.643Z" fill="#E4E9F9" />
      <path d="M239.583 226.381H187.716V229.7H239.583V226.381Z" fill="#E4E9F9" />
      <path d="M211.84 220.195H187.716V223.514H211.84V220.195Z" fill="#E4E9F9" />
      <path d="M239.658 220.195H215.458V223.514H239.658V220.195Z" fill="#E4E9F9" />
      <path d="M239.583 214.01H187.716V217.329H239.583V214.01Z" fill="#E4E9F9" />
      <path d="M211.915 263.722H187.716V267.041H211.915V263.722Z" fill="#E4E9F9" />
      <path d="M215.398 267.038H239.597V263.719H215.398V267.038Z" fill="#E4E9F9" />
      <path d="M307.356 208.956H244.859V272.171H307.356V208.956Z" fill="#D3DBF4" />
      <path d="M288.81 252.406L263.782 252.104L260.917 234.075L291.223 234L288.81 252.406Z" fill="#C2CFEF" />
      <path d="M291.223 234L260.917 234.076L276.07 221.629L291.223 234Z" fill="#C2CFEF" />
      <path d="M286.157 232.248L265.5 232.284L265.531 249.785L286.188 249.749L286.157 232.248Z" fill="white" />
      <path d="M260.917 234.076L260.992 253.765L276.145 244.637L260.917 234.076Z" fill="#E3EAFC" />
      <path d="M291.223 234L291.298 253.764L276.146 244.636L291.223 234Z" fill="#E3EAFC" />
      <path d="M291.298 253.764H260.992L276.145 241.317L291.298 253.764Z" fill="#E3EAFC" />
      <path d="M260.992 253.764L276.145 241.317L291.298 253.764" stroke="#D3DBF4" stroke-miterlimit="10" />
      <path d="M278.256 243.128L291.223 234" stroke="#D3DBF4" stroke-miterlimit="10" />
      <path d="M273.959 243.128L260.917 234.076" stroke="#D3DBF4" stroke-miterlimit="10" />
      <path d="M264.023 264.7H288.222V261.381H264.023V264.7Z" fill="#E3EAFC" />
      <path d="M307.431 77.0947H182.438V140.159H307.431V77.0947Z" fill="#D3DBF4" />
      <path d="M243.139 90.4756L302.017 90.4756V86.1003H243.139V90.4756Z" fill="#E3EAFC" />
      <path d="M243.139 98.6279L302.017 98.6279V94.2527H243.139V98.6279Z" fill="#E3EAFC" />
      <path d="M243.139 106.704L302.017 106.704V102.329H243.139V106.704Z" fill="#E3EAFC" />
      <path d="M243.139 114.856L302.017 114.856V110.481H243.139V114.856Z" fill="#E3EAFC" />
      <path d="M243.139 131.085H302.017V126.71H243.139V131.085Z" fill="#E3EAFC" />
      <path d="M266.831 122.933H302.037V118.557H266.831V122.933Z" fill="#E3EAFC" />
      <path d="M262.877 118.584H243.201V122.959H262.877V118.584Z" fill="#E3EAFC" />
      <path d="M234.154 86.2979H189.6V130.88H234.154V86.2979Z" fill="#E3EAFC" />
      <path d="M215.986 100.253L229.556 123.412H202.416L215.986 100.253Z" fill="white" />
      <path d="M202.265 107.872L205.13 113.454L200.004 123.412H194.199L202.265 107.872Z" fill="white" />
      <path d="M195.33 98.8956C195.33 100.253 196.46 101.385 197.817 101.385C199.174 101.385 200.305 100.253 200.305 98.8956C200.305 97.5378 199.174 96.4062 197.817 96.4062C196.46 96.4062 195.33 97.5378 195.33 98.8956Z" fill="white" />
      <path d="M209.654 71.8899H280.141C281.272 71.8899 282.177 70.9847 282.177 69.8532C282.177 68.7216 281.272 67.8164 280.141 67.8164H209.654C208.523 67.8164 207.618 68.7216 207.618 69.8532C207.694 70.9847 208.598 71.8899 209.654 71.8899Z" fill="#D3DBF4" />
      <path d="M244.935 145.741V272.095" stroke="white" stroke-miterlimit="10" />
      <path d="M182.438 208.956H307.431" stroke="white" stroke-miterlimit="10" />
      <path d="M34.7539 302.042H455.116" stroke="#849CF4" stroke-miterlimit="10" />
      <path d="M431.896 280.997L433.178 302.496L432.499 309.285L406.867 309.134C406.189 309.134 405.661 308.606 405.737 307.927C405.737 307.475 406.038 307.022 406.491 306.871L417.949 301.591L415.386 279.187" fill="#FFCBBD" />
      <path d="M404.531 308.908C404.832 308.078 405.285 307.097 405.812 306.871L417.95 301.666C424.659 304.382 433.329 302.27 433.329 302.27L434.007 311.397C434.007 311.699 433.781 311.925 433.48 311.925L404.832 311.774C404.154 311.85 404.531 308.908 404.531 308.908Z" fill="#F7471E" />
      <path d="M415.311 302.194C415.99 303.1 416.593 304.08 417.045 305.061" stroke="#B22B19" stroke-width="0.75" stroke-miterlimit="10" />
      <path d="M413.803 303.1C414.482 304.08 414.783 304.608 415.236 305.514" stroke="#B22B19" stroke-width="0.75" stroke-miterlimit="10" />
      <path d="M412.522 303.778C412.974 304.457 413.502 305.287 413.804 306.041" stroke="#B22B19" stroke-width="0.75" stroke-miterlimit="10" />
      <path d="M433.781 309.964L404.455 309.813" stroke="#B22B19" stroke-width="0.75" stroke-miterlimit="10" />
      <path d="M433.555 305.664C433.555 305.664 426.77 305.739 426.167 309.964" stroke="#B22B19" stroke-width="0.75" stroke-miterlimit="10" />
      <path d="M408.3 305.815C408.3 305.815 410.26 308.607 410.637 309.889" stroke="#B22B19" stroke-width="0.75" stroke-miterlimit="10" />
      <path d="M411.768 198.244C411.768 198.244 408.074 228.569 409.506 250.521C410.939 272.548 412.974 298.045 412.974 298.045H435.289C435.289 298.045 432.424 260.252 432.726 242.6C433.103 222.987 439.058 198.244 439.058 198.244" fill="#0E32AE" />
      <path d="M430.69 298.12C430.69 298.12 427.826 260.327 428.127 242.675C428.504 223.062 434.46 198.319 434.46 198.319" stroke="#121649" stroke-width="0.75" stroke-miterlimit="10" />
      <path d="M461.222 252.181L481.879 258.819L488.136 261.535L480.22 285.976C479.994 286.579 479.391 286.956 478.712 286.73C478.26 286.579 477.959 286.127 477.883 285.674L476.3 273.152L454.814 266.136" fill="#FFCBBD" />
      <path d="M479.316 288.087C478.562 287.559 477.808 286.805 477.808 286.277L476.526 273.151C481.125 267.569 481.804 258.743 481.804 258.743L490.699 260.855C491.001 260.931 491.152 261.233 491.076 261.534L482.256 288.842C481.954 289.37 479.316 288.163 479.316 288.087Z" fill="#F7471E" />
      <path d="M476.149 275.791C477.205 275.414 478.26 275.188 479.391 275.037" stroke="#B22B19" stroke-width="0.75" stroke-miterlimit="10" />
      <path d="M476.526 277.527C477.657 277.15 478.26 277.075 479.316 276.924" stroke="#B22B19" stroke-width="0.75" stroke-miterlimit="10" />
      <path d="M476.752 278.96C477.506 278.734 478.486 278.507 479.316 278.356" stroke="#B22B19" stroke-width="0.75" stroke-miterlimit="10" />
      <path d="M489.191 260.554L480.145 288.54" stroke="#B22B19" stroke-width="0.75" stroke-miterlimit="10" />
      <path d="M484.97 259.498C484.97 259.498 482.934 265.985 486.854 267.871" stroke="#B22B19" stroke-width="0.75" stroke-miterlimit="10" />
      <path d="M477.506 283.562C477.506 283.562 480.748 282.506 482.105 282.581" stroke="#B22B19" stroke-width="0.75" stroke-miterlimit="10" />
      <path d="M448.105 199.225C448.105 199.225 450.14 207.824 450.14 211.521C450.14 214.236 449.085 216.047 448.482 218.084C448.256 218.913 448.105 219.819 448.03 220.648C447.879 224.647 447.653 235.735 450.14 241.016C453.156 247.503 478.562 256.103 478.562 256.103L472.154 275.49C472.154 275.49 433.329 265.759 428.504 253.84C421.719 237.244 423.679 199.149 423.679 199.149" fill="#0E32AE" />
      <path d="M433.102 259.497C430.841 257.687 429.182 255.876 428.428 253.915C421.644 237.319 423.604 199.225 423.604 199.225" stroke="#121649" stroke-width="0.75" stroke-miterlimit="10" />
      <path d="M444.788 198.546C444.788 198.546 447.049 209.409 447.049 213.105C447.049 215.896 445.918 217.782 445.391 219.743C445.164 220.498 445.014 221.327 444.938 222.157C444.712 226.08 444.26 237.395 447.049 242.6C450.894 249.766 477.43 259.271 477.43 259.271" stroke="#121649" stroke-width="0.75" stroke-miterlimit="10" />
      <path d="M420.437 201.412C420.437 201.412 420.06 209.257 421.191 210.163C422.322 211.068 423.377 211.747 423.377 211.747" stroke="#121649" stroke-width="0.75" stroke-miterlimit="10" />
      <path d="M475.32 255.047L468.233 274.509" stroke="#121649" stroke-width="0.75" stroke-miterlimit="10" />
      <path d="M412.672 294.273H434.987" stroke="#121649" stroke-width="0.75" stroke-miterlimit="10" />
      <path d="M438.681 199.828C438.681 199.828 440.038 204.807 446.295 206.316" stroke="#121649" stroke-width="0.75" stroke-miterlimit="10" />
      <path d="M411.089 205.41C411.089 205.41 416.668 203.751 418.402 199.828" stroke="#121649" stroke-width="0.75" stroke-miterlimit="10" />
      <path d="M424.584 139.404L423.604 146.42C423.604 146.42 423.528 148.381 427.298 149.739C431.896 151.398 434.686 147.853 434.686 147.853L434.384 140.762" fill="#FFCBBB" />
      <path d="M423.981 130.126C423.981 130.126 419.156 138.273 422.473 141.516C425.564 144.458 432.273 142.648 432.876 141.592C433.479 140.536 437.324 131.484 435.213 130.201C431.519 128.014 426.091 126.656 423.981 130.126Z" fill="#FFCBBB" />
      <path d="M424.056 143.025C424.056 143.025 427.373 144.081 430.389 142.724" stroke="#EF977F" stroke-miterlimit="10" />
      <path d="M423.151 124.845C423.754 120.018 429.635 123.638 431.972 125.826C432.65 126.505 436.872 127.712 437.475 128.391C438.153 129.07 438.681 129.975 438.907 130.88C439.058 131.71 438.907 132.615 438.756 133.37C438.38 134.878 437.776 136.236 437.249 137.669C436.646 139.178 435.515 142.271 433.253 141.969C432.801 141.894 432.348 141.818 432.122 141.517C431.821 141.215 431.821 140.762 431.896 140.31C431.972 139.631 432.198 138.952 432.499 138.348C432.047 138.499 431.595 138.726 431.142 138.575C430.992 138.499 430.916 138.348 430.841 138.273C430.539 137.82 430.916 134.727 432.348 133.445C430.238 132.464 428.654 132.389 426.468 131.484C424.734 130.729 423.98 129.9 423.377 129.07C422.548 127.863 423 126.279 423.151 124.845Z" fill="#4A1A1A" />
      <path d="M431.972 138.046C432.499 137.292 433.329 136.462 434.082 137.216C434.384 137.518 434.459 137.971 434.459 138.423C434.535 139.857 433.102 141.743 431.745 141.215C431.142 140.988 430.916 140.083 430.841 139.404" fill="#FFCBBB" />
      <path d="M425.036 133.671C425.036 133.671 422.925 135.708 422.925 136.462C422.925 137.141 424.508 137.594 424.508 137.594" stroke="#F7A794" stroke-width="0.5" stroke-miterlimit="10" />
      <path d="M422.172 137.896L425.941 139.329C425.941 139.329 425.036 141.592 422.775 140.536C421.191 139.781 422.172 137.896 422.172 137.896Z" fill="white" />
      <path d="M423.453 132.54C423.453 132.615 423.377 132.615 423.377 132.69C423.377 132.766 423.302 132.766 423.302 132.841C423.227 132.917 423.227 132.992 423.151 133.068C423.151 133.143 423.076 133.218 423.151 133.294C423.151 133.369 423.227 133.445 423.302 133.445C423.377 133.445 423.453 133.52 423.528 133.445C423.604 133.445 423.679 133.369 423.679 133.294C423.754 133.218 423.754 133.143 423.83 132.992C423.905 132.917 423.905 132.766 423.98 132.69C423.98 132.615 423.98 132.54 423.98 132.464C423.98 132.389 423.905 132.389 423.83 132.389C423.754 132.389 423.679 132.389 423.679 132.389H423.604C423.528 132.464 423.528 132.54 423.453 132.54Z" fill="#212237" />
      <path d="M425.111 131.86C425.111 131.86 424.659 130.804 423.528 131.332" stroke="#212237" stroke-width="0.5" stroke-miterlimit="10" stroke-linecap="round" stroke-linejoin="round" />
      <path d="M428.202 134.803C428.202 134.878 428.127 134.878 428.127 134.954C428.127 135.029 428.052 135.029 428.052 135.105C428.052 135.18 427.976 135.18 427.976 135.256C427.976 135.331 427.901 135.406 427.901 135.482C427.901 135.557 427.901 135.557 427.901 135.633C427.901 135.708 427.901 135.708 427.901 135.708C427.901 135.784 427.976 135.784 428.052 135.859C428.127 135.859 428.202 135.859 428.278 135.859C428.353 135.859 428.429 135.784 428.429 135.708C428.504 135.633 428.504 135.482 428.579 135.331C428.579 135.256 428.655 135.105 428.655 135.029C428.655 134.954 428.655 134.878 428.655 134.803C428.655 134.728 428.579 134.728 428.504 134.728C428.353 134.652 428.278 134.728 428.202 134.803Z" fill="#212237" />
      <path d="M428.353 133.068C428.353 133.068 429.484 132.917 430.313 134.426" stroke="#212237" stroke-width="0.5" stroke-miterlimit="10" stroke-linecap="round" stroke-linejoin="round" />
      <path d="M408.225 108.702C407.923 104.629 408.451 93.087 407.772 92.7852C407.094 92.4835 406.792 96.4061 406.189 96.0289C405.661 95.6518 405.661 89.6169 404.907 89.5415C403.852 89.3906 404.078 95.5763 404.078 95.5763C404.078 95.5763 403.4 88.7872 402.42 88.938C401.741 89.0135 401.967 94.2185 401.817 96.2552C401.741 94.0676 401.063 89.9941 400.384 90.145C399.706 90.2959 399.781 94.3694 399.781 97.085C399.63 95.35 399.329 91.6537 398.65 91.7291C397.972 91.8046 397.821 101.46 397.746 109.607" fill="#FFCBBD" />
      <path d="M407.245 149.512C407.245 149.512 402.872 140.309 400.158 129.673C397.444 118.961 397.896 105.081 397.896 105.081L408.149 106.816C408.149 106.816 408.601 126.203 420.362 145.514" fill="#FFCBBD" />
      <path d="M400.007 97.3867C400.837 98.6691 401.967 100.178 401.892 102.743" stroke="#F7A794" stroke-miterlimit="10" />
      <path d="M406.113 96.9346C405.133 97.8398 404.078 100.178 404.606 101.385" stroke="#F7A794" stroke-miterlimit="10" />
      <path d="M441.32 106.741C442.827 105.006 444.184 103.045 445.24 100.857C446.371 98.6695 447.125 96.4819 447.728 94.2189L441.621 92.1821C442.074 90.0699 442.224 87.9577 442.149 85.8455L448.482 84.7895C448.105 80.037 446.597 75.4355 444.109 71.4374L438.304 74.304C437.173 72.5689 435.816 70.9094 434.158 69.4761L437.852 64.1956C436.118 62.6869 434.158 61.3291 431.972 60.273C429.785 59.1415 427.599 58.3871 425.337 57.7836L423.302 63.8939C421.191 63.4413 419.08 63.2904 416.969 63.3659L415.914 57.0293C411.165 57.4065 406.566 58.9152 402.57 61.4045L405.435 67.213C403.701 68.3446 402.043 69.7024 400.61 71.362L395.333 67.6657C393.825 69.4007 392.468 71.362 391.413 73.5496C390.282 75.7372 389.528 77.9249 388.925 80.1879L395.032 82.2247C394.579 84.3368 394.429 86.449 394.504 88.5612L388.171 89.6173C388.548 94.3697 390.056 98.9713 392.544 102.969L398.349 100.103C399.48 101.838 400.837 103.497 402.495 104.931L398.801 110.211C400.535 111.72 402.495 113.078 404.681 114.134C406.867 115.265 409.054 116.02 411.315 116.623L413.351 110.513C415.462 110.965 417.573 111.116 419.683 111.041L420.739 117.377C425.488 117 430.087 115.492 434.082 113.002L431.218 107.194C432.952 106.062 434.61 104.704 436.043 103.045L441.32 106.741ZM413.125 97.4626C407.395 94.5206 405.134 87.5806 408.074 81.8475C411.014 76.1144 417.949 73.8514 423.679 76.7933C429.408 79.7353 431.67 86.6753 428.73 92.4084C425.79 98.066 418.779 100.329 413.125 97.4626Z" fill="#ADBBF9" />
      <path d="M423.679 145.439C420.588 145.439 415.838 135.633 415.838 135.633L403.55 144.836C403.55 144.836 407.47 157.056 414.105 164.826" fill="#F7471E" />
      <path d="M416.894 137.594L404.38 147.023" stroke="#B22B19" stroke-width="0.75" stroke-miterlimit="10" />
      <path d="M455.493 103.724C454.814 99.1978 453.156 88.6369 452.402 88.486C451.648 88.3351 451.347 90.8245 451.648 91.8806C451.196 89.9947 449.839 85.7703 449.009 85.7703C447.954 85.8458 449.311 91.8806 449.311 91.8806C449.311 91.8806 447.502 85.3177 446.522 85.6195C445.843 85.8458 447.049 90.8999 447.2 92.8612C446.673 90.7491 445.391 86.8264 444.712 87.0527C444.034 87.279 444.863 91.2771 445.316 93.9928C444.939 92.3332 443.883 88.7123 443.28 88.9386C442.677 89.1649 444.335 97.4628 445.316 105.685" fill="#FFCBBD" />
      <path d="M453.382 145.892C453.382 145.892 456.096 136.086 456.925 125.072C457.754 114.059 454.89 100.48 454.89 100.48L445.089 103.95C445.089 103.95 447.954 123.111 439.812 144.157" fill="#FFCBBD" />
      <path d="M423.679 145.439C423.679 145.439 424.282 147.174 427.675 147.325C432.047 147.552 434.46 145.439 434.46 145.439C434.46 145.439 447.502 147.174 448.557 161.356C449.763 177.726 450.065 200.733 450.065 200.733H409.506C409.506 200.733 409.808 174.482 410.637 161.884C411.466 149.966 423.679 145.439 423.679 145.439Z" fill="#F7471E" />
      <path d="M448.482 163.167C453.382 150.418 455.116 140.687 455.116 140.687L442.074 134.351C442.074 134.351 438.983 143.026 434.459 145.364" fill="#F7471E" />
      <path d="M441.093 136.915L454.588 143.402" stroke="#B22B19" stroke-width="0.75" stroke-miterlimit="10" />
      <path d="M409.506 198.546H450.065" stroke="#B22B19" stroke-width="0.75" stroke-miterlimit="10" />
      <path d="M448.859 162.262C448.859 162.262 447.2 165.807 447.049 167.542" stroke="#B22B19" stroke-width="0.75" stroke-miterlimit="10" />
      <path d="M413.652 152.907C413.652 152.907 411.164 157.056 410.637 161.959" stroke="#B22B19" stroke-width="0.75" stroke-miterlimit="10" />
      <path d="M422.171 144.836C422.171 144.836 422.85 149.588 428.127 149.588C434.61 149.588 435.892 144.836 435.892 144.836" stroke="#B22B19" stroke-width="0.75" stroke-miterlimit="10" />
      <path d="M451.572 91.805C451.572 91.7295 451.648 91.8804 451.648 91.9559L451.723 92.1067L451.874 92.4839C451.949 92.7102 452.1 93.0119 452.176 93.2382C452.326 93.7663 452.477 94.2943 452.477 94.8224C452.326 94.5961 452.176 94.3698 452.1 94.1435C451.949 93.9172 451.874 93.6154 451.799 93.3891C451.723 93.1628 451.648 92.8611 451.572 92.6348L451.497 92.2576V92.0313L451.572 91.805C451.572 91.8804 451.572 91.7295 451.572 91.805Z" fill="#EF977F" />
      <path d="M355.603 279.865L356.282 302.194L355.528 309.209L328.916 309.059C328.238 309.059 327.71 308.531 327.71 307.852C327.71 307.324 328.012 306.871 328.464 306.72L340.375 301.289L338.566 278.055" fill="#FFCBBD" />
      <path d="M326.579 308.756C326.881 307.851 327.409 306.871 327.861 306.644L340.451 301.213C347.386 304.004 356.357 301.892 356.357 301.892L357.036 311.397C357.036 311.698 356.81 312 356.433 311.925L326.655 311.774C326.127 311.849 326.504 308.832 326.579 308.756Z" fill="#18277A" />
      <path d="M337.737 301.816C338.415 302.722 339.018 303.778 339.546 304.834" stroke="#121649" stroke-width="0.75" stroke-miterlimit="10" />
      <path d="M336.153 302.722C336.907 303.702 337.209 304.306 337.586 305.286" stroke="#121649" stroke-width="0.75" stroke-miterlimit="10" />
      <path d="M334.796 303.477C335.324 304.155 335.776 305.061 336.153 305.815" stroke="#121649" stroke-width="0.75" stroke-miterlimit="10" />
      <path d="M356.885 309.964L326.429 309.737" stroke="#121649" stroke-width="0.75" stroke-miterlimit="10" />
      <path d="M356.659 305.362C356.659 305.362 349.572 305.438 348.969 309.888" stroke="#121649" stroke-width="0.75" stroke-miterlimit="10" />
      <path d="M330.424 305.589C330.424 305.589 332.459 308.455 332.836 309.813" stroke="#121649" stroke-width="0.75" stroke-miterlimit="10" />
      <path d="M352.513 192.059C352.513 192.059 355.755 197.49 356.659 201.564C358.167 208.051 356.659 214.689 356.659 214.689L356.584 292.765H336.832C336.832 292.765 332.46 202.771 334.42 191.078" fill="#0D219B" />
      <path d="M339.848 292.765C339.848 292.765 335.475 202.771 337.435 191.078" stroke="#121649" stroke-width="0.75" stroke-miterlimit="10" />
      <path d="M333.741 271.039L342.712 291.482L344.672 298.271L319.945 308.078C319.342 308.304 318.588 308.002 318.362 307.399C318.211 306.946 318.287 306.418 318.664 306.041L327.635 296.536L317.307 275.641" fill="#FFCBBD" />
      <path d="M317.608 308.757C317.533 307.852 317.684 306.72 318.061 306.343L327.71 296.612C335.174 296.612 342.712 291.256 342.712 291.256L346.859 299.78C347.009 300.082 346.859 300.384 346.557 300.534L318.89 311.472C318.362 311.699 317.608 308.757 317.608 308.757Z" fill="#0E32AE" />
      <path d="M325.373 298.12C326.353 298.724 327.333 299.402 328.162 300.232" stroke="#121649" stroke-width="0.75" stroke-miterlimit="10" />
      <path d="M324.242 299.554C325.298 300.233 325.75 300.685 326.504 301.364" stroke="#121649" stroke-width="0.75" stroke-miterlimit="10" />
      <path d="M323.262 300.686C323.941 301.138 324.77 301.817 325.373 302.345" stroke="#121649" stroke-width="0.75" stroke-miterlimit="10" />
      <path d="M346.18 298.497L317.834 309.661" stroke="#121649" stroke-width="0.75" stroke-miterlimit="10" />
      <path d="M344.22 294.349C344.22 294.349 337.661 297.064 338.717 301.364" stroke="#121649" stroke-width="0.75" stroke-miterlimit="10" />
      <path d="M320.021 304.306C320.021 304.306 322.961 306.267 323.865 307.323" stroke="#121649" stroke-width="0.75" stroke-miterlimit="10" />
      <path d="M318.438 204.808C308.26 229.777 308.11 232.417 306.451 244.638C304.717 257.16 323.489 293.972 323.489 293.972L341.506 285.976C341.506 285.976 329.52 252.256 330.349 246.523C331.781 235.887 344.069 217.707 344.069 217.707C344.069 217.707 349.874 213.106 351.156 206.92C352.437 200.81 349.648 194.322 349.648 194.322" fill="#0E32AE" />
      <path d="M336.983 207.749C337.209 207.674 345.049 205.185 345.049 205.185" stroke="#121649" stroke-width="0.75" stroke-miterlimit="10" />
      <path d="M354.247 202.922L356.81 202.092" stroke="#121649" stroke-width="0.75" stroke-miterlimit="10" />
      <path d="M324.469 204.053C324.469 204.053 311.879 231.36 310.22 243.883C308.486 256.405 326.806 292.161 326.806 292.161" stroke="#121649" stroke-width="0.75" stroke-miterlimit="10" />
      <path d="M334.495 234.453C338.415 225.853 343.994 217.631 343.994 217.631C343.994 217.631 349.799 213.029 351.08 206.844" stroke="#121649" stroke-width="0.75" stroke-miterlimit="10" />
      <path d="M316.704 142.95L321.906 151.927C321.906 151.927 318.815 158.641 310.447 155.472L308.336 150.72L316.704 142.95Z" fill="#FFCBBD" />
      <path d="M302.983 136.915C302.983 136.915 300.42 148.909 304.868 151.021C307.205 152.153 313.613 151.474 315.121 148.985C316.252 147.174 315.799 138.499 314.442 137.518C309.165 133.445 302.983 136.915 302.983 136.915Z" fill="#FFCBBD" />
      <path d="M314.216 133.37C312.256 129.975 308.336 130.654 301.928 134.275C301.099 134.728 299.214 134.954 299.214 135.935C299.214 137.217 300.119 139.405 301.626 139.782C302.606 140.083 303.134 140.008 304.189 139.706C305.546 139.405 307.28 139.933 307.28 141.517C307.28 141.894 307.13 142.648 307.507 142.799C307.733 142.875 308.185 142.799 308.411 142.799C309.014 142.799 309.316 143.553 309.24 144.157C309.165 144.76 309.542 145.213 309.467 145.817C309.316 147.25 311.05 148.759 312.482 148.909C313.764 148.985 317.382 148.381 319.116 146.043C320.624 144.006 320.398 140.536 317.91 135.406C317.005 133.445 314.894 132.842 314.216 133.37Z" fill="#212237" />
      <path d="M307.129 143.403C307.506 141.517 308.562 141.29 309.391 141.818C310.522 142.497 310.296 145.213 309.843 145.892C309.014 147.25 307.959 147.627 307.356 146.722" fill="#FFCBBD" />
      <path d="M308.713 151.474C310.07 150.342 309.844 148.306 309.844 148.306" stroke="#E88872" stroke-width="0.5" stroke-miterlimit="10" stroke-linejoin="round" />
      <path d="M303.36 142.648C303.209 143.026 303.134 143.704 303.435 143.931C303.511 144.006 303.661 144.006 303.737 143.931C304.491 143.478 303.737 141.743 303.36 142.648Z" fill="#28364C" />
      <path d="M302.833 141.291C303.36 141.216 304.265 141.291 304.793 141.668" stroke="#28364C" stroke-width="0.75" stroke-miterlimit="10" />
      <path d="M305.019 147.024L303.059 146.948C303.059 146.948 302.983 149.287 303.888 149.362C304.943 149.438 305.019 147.024 305.019 147.024Z" fill="white" />
      <path d="M320.699 149.89C320.699 149.89 325.222 148.759 331.555 150.569C336.908 152.153 343.768 156.151 348.894 161.658C357.79 171.163 353.719 194.699 353.719 194.699L342.109 194.246C342.109 194.246 343.919 179.084 337.888 173.049C331.781 166.939 323.262 165.581 323.262 165.581" fill="#ADBBF9" />
      <path d="M271.547 183.006C267.928 183.987 256.921 185.193 256.771 185.948C256.62 186.702 260.465 186.325 260.238 186.928C260.012 187.532 254.057 188.513 254.057 189.267C254.057 190.323 260.088 189.041 260.088 189.041C260.088 189.041 257.6 189.493 257.901 190.398C258.128 191.077 259.108 191.228 261.143 191.077C260.088 191.304 259.635 191.832 259.861 192.511C260.088 193.19 261.143 193.114 262.274 192.963C261.52 193.114 260.917 193.642 261.445 194.095C262.123 194.698 266.571 194.397 274.562 193.039" fill="#FFCBBD" />
      <path d="M309.24 152.907C309.24 152.907 312.331 154.265 315.799 152.907C319.267 151.55 320.699 149.89 320.699 149.89C320.699 149.89 328.464 149.362 337.963 158.867C347.537 168.447 355.001 195.604 355.001 195.604L315.724 208.805C315.724 208.805 309.014 185.043 306.376 174.18C303.737 163.318 309.24 152.907 309.24 152.907Z" fill="#ADBBF9" />
      <path d="M337.436 156.378C345.276 165.581 355.001 195.604 355.001 195.604" stroke="#525BCE" stroke-width="0.75" stroke-miterlimit="10" />
      <path d="M309.24 152.907C304.038 154.869 299.666 159.923 296.877 165.052C292.429 173.501 289.715 179.687 289.715 179.687L267.174 183.081L268.305 195.076C268.305 195.076 283.608 194.623 295.746 192.812C304.415 191.53 311.125 173.576 311.125 173.576" fill="#ADBBF9" />
      <path d="M307.733 153.587C307.733 153.587 310.221 156.906 316.176 154.643C322.132 152.38 322.358 149.664 322.358 149.664" stroke="#525BCE" stroke-width="0.75" stroke-miterlimit="10" />
      <path d="M308.26 179.763L310.748 174.558" stroke="#525BCE" stroke-width="0.75" stroke-miterlimit="10" />
      <path d="M270.717 182.554L271.622 194.925" stroke="#525BCE" stroke-width="0.75" stroke-miterlimit="10" />
      <path d="M315.045 206.24L354.247 193.266" stroke="#525BCE" stroke-width="0.75" stroke-miterlimit="10" />
      <path d="M160.651 173.35C160.802 173.5 161.028 173.576 161.179 173.727C162.913 174.858 164.722 175.99 166.758 176.593C167.889 176.971 169.17 177.121 170.15 177.876C170.527 178.177 170.829 178.479 171.281 178.781C171.356 178.856 172.487 179.234 172.487 179.158C172.638 179.535 173.09 179.762 173.467 179.912C173.543 179.912 173.543 179.988 173.618 179.912C173.693 179.912 173.693 179.837 173.693 179.837C173.844 180.139 174.372 180.214 174.523 180.063C174.673 179.912 174.297 179.234 174.297 179.234C174.297 179.234 174.598 179.234 174.673 179.158C174.824 179.007 174.824 178.781 174.824 178.63C174.975 176.82 174.221 174.934 172.94 173.651" fill="#FFCBBD" />
      <path d="M173.166 177.122C173.166 177.197 173.166 177.273 173.166 177.348C173.166 177.424 173.241 177.499 173.241 177.575C173.316 177.725 173.392 177.876 173.392 178.027C173.467 178.178 173.542 178.329 173.618 178.48C173.693 178.631 173.769 178.782 173.844 178.932C173.919 179.083 174.07 179.008 174.07 178.857C174.07 178.706 173.995 178.555 173.919 178.404C173.844 178.254 173.769 178.103 173.693 177.952C173.618 177.801 173.542 177.65 173.467 177.499C173.392 177.424 173.392 177.348 173.316 177.273C173.241 177.197 173.241 177.197 173.166 177.122C173.166 177.047 173.241 177.047 173.166 177.122Z" fill="#F49C8E" />
      <path d="M171.281 177.197C171.582 177.574 171.959 177.951 172.336 178.253C172.487 178.404 172.638 178.63 172.789 178.781C172.864 178.857 172.939 179.007 173.015 179.083C173.09 179.158 173.166 179.309 173.241 179.385C173.316 179.46 173.467 179.46 173.392 179.309C173.392 179.158 173.316 179.083 173.241 178.932C173.166 178.857 173.09 178.706 173.015 178.63C172.864 178.404 172.713 178.253 172.487 178.027C172.11 177.65 171.733 177.348 171.356 176.971C171.356 176.971 171.205 177.122 171.281 177.197Z" fill="#F49C8E" />
      <path d="M159.144 312L145.725 175.16" stroke="#0E32AE" stroke-miterlimit="10" />
      <path d="M211.312 312L197.893 175.16H145.725" stroke="#0E32AE" stroke-miterlimit="10" />
      <path d="M184.474 312L197.893 175.16" stroke="#0E32AE" stroke-miterlimit="10" />
      <path d="M132.381 312L145.724 175.16H197.893" stroke="#0E32AE" stroke-miterlimit="10" />
      <path d="M209.126 292.612H134.266" stroke="#0E32AE" stroke-miterlimit="10" />
      <path d="M207.392 275.866H135.924" stroke="#0E32AE" stroke-miterlimit="10" />
      <path d="M206.035 258.592H137.583" stroke="#0E32AE" stroke-miterlimit="10" />
      <path d="M204.376 242.222H139.166" stroke="#0E32AE" stroke-miterlimit="10" />
      <path d="M202.793 225.099H140.824" stroke="#0E32AE" stroke-miterlimit="10" />
      <path d="M201.135 208.125H142.483" stroke="#0E32AE" stroke-miterlimit="10" />
      <path d="M199.174 192.058H144.066" stroke="#0E32AE" stroke-miterlimit="10" />
      <path d="M157.711 174.858C163.064 174.858 168.416 174.858 173.769 174.858C173.241 173.953 172.94 173.35 172.412 172.822C171.734 172.143 171.13 171.69 170.452 171.313C167.964 170.03 165.175 169.352 162.385 169.352" fill="#FFCBBD" />
      <path d="M139.09 137.896C139.09 137.896 146.403 156.981 148.212 158.565C150.022 160.149 167.512 168.824 167.512 168.824L162.159 180.139C162.159 180.139 141.201 171.766 138.186 168.824C135.17 165.882 125.596 154.567 124.691 143.101" fill="#E23917" />
      <path d="M125.069 262.665L124.315 283.184L124.918 289.671H149.419C150.022 289.671 150.55 289.143 150.55 288.539C150.55 288.087 150.248 287.634 149.796 287.483L138.865 282.429L140.599 261.081" fill="#FFCBBD" />
      <path d="M151.68 289.445C151.454 288.615 150.927 287.71 150.474 287.484L138.94 282.43C132.532 284.994 124.315 282.958 124.315 282.958L123.636 291.708C123.636 292.01 123.862 292.236 124.164 292.236H151.53C152.057 292.236 151.68 289.445 151.68 289.445Z" fill="#F7471E" />
      <path d="M141.428 282.957C140.749 283.787 140.221 284.692 139.769 285.673" stroke="#B22B19" stroke-width="0.75" stroke-miterlimit="10" />
      <path d="M142.86 283.862C142.181 284.768 141.88 285.296 141.503 286.201" stroke="#B22B19" stroke-width="0.75" stroke-miterlimit="10" />
      <path d="M144.141 284.466C143.689 285.069 143.237 285.899 142.86 286.578" stroke="#B22B19" stroke-width="0.75" stroke-miterlimit="10" />
      <path d="M123.787 290.35H151.831" stroke="#B22B19" stroke-width="0.75" stroke-miterlimit="10" />
      <path d="M124.013 286.201C124.013 286.201 130.497 286.277 131.1 290.35" stroke="#B22B19" stroke-width="0.75" stroke-miterlimit="10" />
      <path d="M148.137 286.428C148.137 286.428 146.252 289.068 145.875 290.275" stroke="#B22B19" stroke-width="0.75" stroke-miterlimit="10" />
      <path d="M119.716 185.495C119.716 185.495 117.379 195.981 122.43 208.654C122.43 208.654 124.918 221.93 125.069 237.093C125.295 252.557 123.184 272.246 123.184 279.638H143.312C143.312 279.638 145.8 258.667 146.026 237.545C146.253 213.859 144.293 187.155 144.293 180.29" fill="#ADBBF9" />
      <path d="M140.297 279.563C140.297 279.563 142.785 258.215 143.011 236.866C143.237 213.406 141.277 187.079 141.277 180.29" stroke="#525BCE" stroke-width="0.75" stroke-miterlimit="10" />
      <path d="M159.144 245.994L158.39 266.513L158.993 273H183.494C184.097 273 184.625 272.472 184.625 271.869C184.625 271.416 184.323 270.963 183.871 270.812L172.939 265.758L174.673 244.41" fill="#FFCBBD" />
      <path d="M185.755 272.698C185.529 271.868 185.001 270.963 184.549 270.737L173.015 265.683C166.607 268.247 158.314 266.286 158.314 266.286L157.636 275.037C157.636 275.338 157.862 275.565 158.163 275.565H185.529C186.057 275.489 185.755 272.698 185.755 272.698Z" fill="#F7471E" />
      <path d="M175.503 266.211C174.824 267.041 174.297 267.946 173.844 268.927" stroke="#B22B19" stroke-width="0.75" stroke-miterlimit="10" />
      <path d="M176.935 267.116C176.257 268.021 175.955 268.549 175.578 269.455" stroke="#B22B19" stroke-width="0.75" stroke-miterlimit="10" />
      <path d="M178.141 267.795C177.689 268.398 177.236 269.228 176.859 269.907" stroke="#B22B19" stroke-width="0.75" stroke-miterlimit="10" />
      <path d="M157.787 273.604H185.831" stroke="#B22B19" stroke-width="0.75" stroke-miterlimit="10" />
      <path d="M158.088 269.455C158.088 269.455 164.571 269.531 165.174 273.604" stroke="#B22B19" stroke-width="0.75" stroke-miterlimit="10" />
      <path d="M182.137 269.757C182.137 269.757 180.252 272.397 179.875 273.604" stroke="#B22B19" stroke-width="0.75" stroke-miterlimit="10" />
      <path d="M153.64 186.626C153.64 186.626 173.015 204.957 177.387 216.951C180.403 225.249 176.03 263.344 176.03 263.344H156.731C156.731 263.344 159.068 228.719 157.862 225.174C156.429 220.949 139.844 206.617 139.844 206.617C139.844 206.617 132.758 205.033 129.441 197.489C126.425 190.7 127.858 182.478 127.858 182.478" fill="#ADBBF9" />
      <path d="M149.117 186.627C149.117 186.627 169.17 207.824 172.864 216.952C175.654 223.892 171.507 263.345 171.507 263.345" stroke="#525BCE" stroke-width="0.75" stroke-miterlimit="10" />
      <path d="M145.649 211.747C144.142 210.389 141.503 207.975 140.674 207.296C140.146 206.843 139.543 206.466 138.94 206.24C136.98 205.561 132.004 203.298 129.366 197.414" stroke="#525BCE" stroke-width="0.75" stroke-miterlimit="10" />
      <path d="M134.718 193.189C134.718 193.189 140.523 193.416 142.936 193.189" stroke="#525BCE" stroke-width="0.75" stroke-miterlimit="10" />
      <path d="M119.113 193.189H123.787" stroke="#525BCE" stroke-width="0.75" stroke-miterlimit="10" />
      <path d="M188.168 140.082C190.203 139.177 199.401 135.104 199.627 135.707C199.853 136.235 196.913 138.197 197.214 138.272C197.365 138.347 200.004 137.669 201.285 136.99C202.416 136.386 204.376 135.707 204.753 136.16C205.356 137.065 198.948 140.082 198.948 140.082C198.948 140.082 200.079 139.554 200.682 140.233C201.512 141.214 199.778 142.195 199.778 142.195C199.778 142.195 200.758 141.667 201.135 142.572C201.512 143.477 200.004 144.231 200.004 144.231C200.004 144.231 201.21 143.628 201.361 144.759C201.587 146.193 192.013 149.587 192.013 149.587" fill="#FFCBBD" />
      <path d="M141.503 130.804C141.503 130.804 139.543 132.313 136.527 131.785C133.436 131.257 132.682 129.748 132.682 129.748C132.682 129.748 124.541 130.88 120.545 156.15C117.756 173.878 118.736 188.286 118.736 188.286H156.053C156.053 188.286 157.183 149.738 155.299 142.572" fill="#F7471E" />
      <path d="M144.443 149.361C144.443 149.361 155.525 161.581 165.778 161.581C176.106 161.581 195.48 150.643 195.48 150.643L190.882 137.895L168.341 145.966C168.341 145.966 156.505 134.877 151.002 132.84C145.498 130.804 141.503 130.804 141.503 130.804" fill="#F7471E" />
      <path d="M156.354 158.715C156.354 158.715 149.419 153.435 146.102 150.945" stroke="#B22B19" stroke-width="0.75" stroke-miterlimit="10" />
      <path d="M188.695 138.649L192.992 152.001" stroke="#B22B19" stroke-width="0.75" stroke-miterlimit="10" />
      <path d="M118.66 185.193H156.128" stroke="#B22B19" stroke-width="0.75" stroke-miterlimit="10" />
      <path d="M149.72 153.736C150.097 164.448 149.72 188.286 149.72 188.286" stroke="#B22B19" stroke-width="0.75" stroke-miterlimit="10" />
      <path d="M132.833 124.317L132.004 131.107C132.004 131.107 138.563 134.577 142.935 130.88V126.882L132.833 124.317Z" fill="#FFCBBD" />
      <path d="M141.729 113.605C141.729 113.605 149.419 123.261 146.629 126.882C145.197 128.768 140.448 128.315 138.111 126.882C136.452 125.826 131.703 120.244 132.456 118.811C135.246 113.304 141.729 113.605 141.729 113.605Z" fill="#FFCBBD" />
      <path d="M140.749 115.416C140.9 119.338 140.372 122.884 140.372 122.884L139.769 135.632C139.769 135.632 129.667 136.688 123.184 132.238C123.184 132.238 125.37 118.81 130.195 114.812C134.793 110.965 140.749 111.267 143.84 113.756C143.84 113.756 143.387 114.888 142.86 115.189C142.257 115.34 140.749 115.416 140.749 115.416Z" fill="#4A1A1A" />
      <path d="M141.428 121.526C140.523 120.319 139.769 120.545 139.317 121.149C138.789 122.054 139.844 123.864 140.372 124.166C141.428 124.77 142.257 124.694 142.332 123.864" fill="#FFCBBD" />
      <path d="M143.01 128.089C141.88 128.089 141.578 127.184 141.578 127.184" stroke="#E88872" stroke-width="0.5" stroke-miterlimit="10" stroke-linejoin="round" />
      <path d="M143.764 118.508C144.066 118.81 144.367 119.262 144.217 119.64C144.141 119.715 144.066 119.79 143.991 119.79C143.237 119.715 143.086 117.98 143.764 118.508Z" fill="#28364C" />
      <path d="M143.689 117.227C142.935 117.227 142.483 117.83 142.257 118.358" stroke="#28364C" stroke-width="0.5" stroke-miterlimit="10" stroke-linecap="round" />
      <path d="M144.368 123.487L146.102 122.959C146.102 122.959 146.78 125.071 145.951 125.297C145.046 125.675 144.368 123.487 144.368 123.487Z" fill="white" />
      <path d="M135.095 112.398C135.773 112.247 136.226 111.493 136.226 110.814C136.226 110.135 135.773 109.456 135.095 109.155C134.492 108.853 133.738 108.777 133.059 109.004C132.833 109.079 132.532 109.155 132.305 109.305C131.401 109.984 131.476 111.342 132.079 112.247C132.305 112.625 132.682 112.926 133.135 113.002C133.587 113.077 134.492 112.926 134.944 112.625" fill="#4A1A1A" />
      <path d="M144.594 118.433C144.82 118.508 146.78 119.413 146.855 120.243C146.855 120.696 145.725 121.224 145.725 121.224" fill="#FFCBBD" />
      <path d="M171.13 173.199C172.337 174.482 172.714 175.764 173.241 176.82C173.241 176.896 173.317 176.896 173.317 176.971C173.317 177.197 172.94 177.197 172.714 177.122C172.186 176.896 171.734 176.669 171.281 176.292C171.13 176.141 170.98 175.99 170.754 175.915C170.377 175.689 170 175.689 169.623 175.613C168.04 175.387 166.381 174.632 165.552 173.199" fill="#FFCBBD" />
      <path d="M171.13 173.199C171.959 173.954 172.562 174.934 173.015 175.99L173.392 176.745C173.392 176.82 173.467 176.896 173.467 177.046C173.467 177.197 173.316 177.273 173.241 177.348C173.015 177.424 172.864 177.424 172.713 177.348C172.185 177.122 171.658 176.82 171.205 176.443C170.979 176.217 170.829 176.066 170.602 175.99C170.376 175.915 170.075 175.839 169.848 175.839C169.321 175.764 168.718 175.613 168.19 175.462C167.135 175.01 166.154 174.255 165.702 173.275C166.305 174.255 167.285 174.859 168.341 175.236C168.868 175.387 169.396 175.538 169.924 175.613C170.225 175.613 170.527 175.689 170.829 175.764C171.13 175.839 171.356 176.066 171.582 176.292C171.959 176.669 172.487 176.971 172.939 177.122C173.015 177.122 173.166 177.197 173.241 177.122C173.316 177.122 173.241 177.122 173.241 177.122V177.046C173.09 176.82 173.015 176.518 172.939 176.292C172.412 175.085 171.884 174.104 171.13 173.199Z" fill="#E88872" />
      <path d="M42.7449 280.996L42.0664 302.495L42.7449 309.284L68.3767 309.133C69.0552 309.133 69.5829 308.605 69.5075 307.926C69.5075 307.474 69.206 307.021 68.7536 306.87L57.2947 301.59L59.0286 279.186" fill="#FFCBBD" />
      <path d="M70.7891 308.907C70.4875 308.077 70.0352 307.096 69.5075 306.87L57.3701 301.665C50.6606 304.381 41.991 302.269 41.991 302.269L41.3125 311.396C41.3125 311.698 41.5387 311.924 41.8402 311.924L70.4875 311.773C71.166 311.849 70.7891 308.907 70.7891 308.907Z" fill="#18277A" />
      <path d="M60.0088 302.193C59.3303 303.099 58.7272 304.079 58.2749 305.06" stroke="#5565AA" stroke-width="0.75" stroke-miterlimit="10" />
      <path d="M61.5164 303.099C60.8379 304.079 60.5363 304.607 60.084 305.513" stroke="#5565AA" stroke-width="0.75" stroke-miterlimit="10" />
      <path d="M62.7982 303.777C62.3459 304.456 61.8182 305.286 61.5166 306.04" stroke="#5565AA" stroke-width="0.75" stroke-miterlimit="10" />
      <path d="M41.4634 309.963L70.8646 309.812" stroke="#5565AA" stroke-width="0.75" stroke-miterlimit="10" />
      <path d="M41.7646 305.663C41.7646 305.663 48.5495 305.739 49.1526 309.963" stroke="#5565AA" stroke-width="0.75" stroke-miterlimit="10" />
      <path d="M67.0196 305.814C67.0196 305.814 65.0596 308.606 64.6826 309.888" stroke="#5565AA" stroke-width="0.75" stroke-miterlimit="10" />
      <path d="M45.1573 203.976C45.1573 203.976 58.8025 229.549 63.0996 245.617C67.3967 261.684 61.6672 297.893 61.6672 297.893H40.4833C40.4833 297.893 44.705 258.592 39.7294 245.617C34.7538 232.642 16.8115 198.47 16.8115 198.47" fill="#ADBBF9" />
      <path d="M43.348 297.893C43.348 297.893 46.8159 257.007 44.705 246.899C42.5942 236.791 27.8936 213.255 27.8936 213.255" stroke="#525BCE" stroke-width="0.75" stroke-miterlimit="10" />
      <path d="M18.47 269.077L5.88024 286.352L2.48779 292.236L23.2948 307.247C23.8225 307.625 24.5764 307.474 24.9533 306.946C25.2549 306.568 25.2549 306.04 24.9533 305.588L18.8469 294.65L32.7183 276.545" fill="#FFCBBD" />
      <path d="M25.4057 308.379C25.7072 307.549 25.858 306.493 25.5564 305.965L18.8469 294.574C11.8359 292.839 6.03103 286.05 6.03103 286.05L0.150795 293.065C1.98931e-05 293.292 1.98931e-05 293.669 0.301571 293.82L23.5964 310.566C23.9733 310.943 25.3303 308.379 25.4057 308.379Z" fill="#18277A" />
      <path d="M20.5806 296.535C19.5252 296.837 18.4698 297.289 17.4897 297.818" stroke="#5565AA" stroke-width="0.75" stroke-miterlimit="10" />
      <path d="M21.3347 298.195C20.2039 298.572 19.6007 298.874 18.7715 299.327" stroke="#5565AA" stroke-width="0.75" stroke-miterlimit="10" />
      <path d="M21.9378 299.478C21.1839 299.704 20.2793 300.156 19.5254 300.534" stroke="#5565AA" stroke-width="0.75" stroke-miterlimit="10" />
      <path d="M1.05566 292.01L24.9536 309.209" stroke="#5565AA" stroke-width="0.75" stroke-miterlimit="10" />
      <path d="M3.84473 288.615C3.84473 288.615 9.34803 292.689 7.31256 296.46" stroke="#5565AA" stroke-width="0.75" stroke-miterlimit="10" />
      <path d="M24.1242 303.627C24.1242 303.627 20.8826 304.758 19.8271 305.513" stroke="#5565AA" stroke-width="0.75" stroke-miterlimit="10" />
      <path d="M11.1573 198.47C7.08634 209.936 11.1573 218.913 11.1573 218.913C11.1573 218.913 24.9532 244.108 24.9532 249.238C24.9532 253.915 7.3125 280.694 7.3125 280.694L23.4455 293.669C23.4455 293.669 48.8511 266.361 48.3234 247.427C47.7203 224.042 34.9798 198.47 34.9798 198.47" fill="#ADBBF9" />
      <path d="M14.1729 199.224C10.1019 210.69 15.0021 218.384 15.0021 218.384C15.0021 218.384 27.9688 244.862 27.9688 249.992C27.9688 254.669 9.57422 282.58 9.57422 282.58" stroke="#525BCE" stroke-width="0.75" stroke-miterlimit="10" />
      <path d="M41.9156 268.172C45.685 261.232 48.4744 253.839 48.3236 247.427C47.7205 224.042 34.98 198.47 34.98 198.47" stroke="#525BCE" stroke-width="0.75" stroke-miterlimit="10" />
      <path d="M12.8159 208.201C12.8159 208.201 20.0531 208.653 22.8425 202.845" stroke="#525BCE" stroke-width="0.75" stroke-miterlimit="10" />
      <path d="M40.4834 211.52C40.4834 211.52 42.4435 211.747 42.2927 210.766C42.1419 209.785 40.4834 204.505 40.4834 204.505" stroke="#525BCE" stroke-width="0.75" stroke-miterlimit="10" />
      <path fill-rule="evenodd" clip-rule="evenodd" d="M49.6055 137.669C50.3594 142.271 49.7563 146.344 45.8361 146.948C41.9159 147.551 36.4126 146.42 35.3572 139.857C34.6033 135.255 37.2419 131.031 41.1621 130.352C45.0822 129.824 48.927 133.068 49.6055 137.669Z" fill="#FFCBBB" />
      <path d="M46.4389 137.745C46.3635 138.198 46.4389 138.726 46.8158 138.952C46.8912 139.028 47.042 138.952 47.1174 138.877C47.6451 138.273 46.5896 136.84 46.4389 137.745Z" fill="#28364C" />
      <path d="M45.1572 136.689C46.1373 136.161 47.0419 136.236 47.8712 136.538" stroke="#28364C" stroke-width="0.5" stroke-miterlimit="10" stroke-linecap="round" stroke-linejoin="round" />
      <path d="M49.0022 142.497H46.4391C46.4391 142.497 46.2883 144.609 47.5699 144.836C48.6253 145.062 49.0022 142.497 49.0022 142.497Z" fill="white" />
      <path fill-rule="evenodd" clip-rule="evenodd" d="M43.7251 152.078C43.7251 152.078 40.6342 152.606 37.7695 151.851C34.377 150.946 33.397 149.513 33.397 149.513L38.1464 139.631L45.459 142.95L43.7251 152.078Z" fill="#FFCBBB" />
      <path d="M44.6295 147.098C44.6295 147.098 41.4632 147.174 39.8047 145.665" stroke="#EF977F" stroke-miterlimit="10" />
      <path fill-rule="evenodd" clip-rule="evenodd" d="M48.7759 137.519C48.7759 137.519 50.736 140.385 50.6606 140.913C50.5852 141.441 49.1528 141.667 49.1528 141.667" fill="#FFCBBB" />
      <path d="M38.2217 144.081C37.7694 144.232 37.2417 144.307 36.8648 144.383C35.9601 144.458 34.9801 144.383 34.1508 143.93C32.643 143.101 31.663 141.366 32.0399 139.631C32.1153 139.329 32.1907 139.102 32.1907 138.801C32.4169 137.518 31.663 136.311 31.4368 134.954C31.2107 133.671 31.5876 132.389 32.2661 131.333C32.9446 130.277 34 129.522 35.2062 129.07C36.1863 128.692 37.1663 128.542 37.9956 127.863C38.3725 127.561 38.6741 127.184 39.1264 126.957C41.0865 125.75 43.8758 126.429 45.6097 127.712C45.8359 127.863 46.0621 128.013 46.2882 128.089C46.7405 128.24 47.1929 128.013 47.5698 128.089C49.2283 128.391 49.9822 130.88 49.9822 132.389C49.9822 132.841 49.8314 133.294 49.6053 133.596C49.2283 134.124 48.5499 134.35 47.9467 134.425C47.0421 134.501 46.1374 134.35 45.3082 134.652C44.7051 134.803 44.1774 135.255 43.5743 135.482C42.6696 135.859 41.6142 135.783 40.7849 135.406C40.9357 136.01 41.0865 136.689 41.0111 137.292C40.8603 138.499 39.8049 139.027 38.7495 139.329C39.1264 140.536 39.3526 142.044 39.051 143.251C38.8248 143.629 38.5233 143.93 38.2217 144.081Z" fill="#14122D" />
      <path d="M39.6542 138.423C39.6542 138.423 38.7496 137.291 37.6187 138.197C36.1864 139.404 38.0711 141.968 39.2019 142.346C40.3327 142.798 40.6342 141.516 40.6342 141.516" fill="#FFCBBB" />
      <path d="M93.1792 188.664C94.6869 187.381 96.0439 185.948 97.2501 184.289C98.4563 182.629 99.4364 180.894 100.19 179.084L95.4408 176.519C96.1193 174.859 96.4963 173.124 96.7224 171.314H102.15C102.452 167.316 101.849 163.318 100.416 159.621L95.2147 161.205C94.5362 159.546 93.6315 158.037 92.5007 156.604L96.3455 152.757C95.0639 151.248 93.6315 149.89 91.973 148.683C90.3145 147.476 88.5805 146.496 86.7712 145.741L84.2081 150.494C82.5495 149.815 80.8156 149.438 79.0063 149.211V143.78C75.0108 143.478 71.0152 144.082 67.3212 145.515L68.9044 150.72C67.2458 151.399 65.7381 152.304 64.3057 153.436L60.4609 149.588C58.9532 150.871 57.5962 152.304 56.39 153.964C55.1838 155.623 54.2038 157.358 53.4499 159.169L58.1993 161.733C57.5208 163.393 57.1439 165.128 56.9177 166.939H51.4898C51.1883 170.937 51.7914 174.935 53.2237 178.631L58.4255 177.047C59.104 178.706 60.0086 180.215 61.1394 181.648L57.2947 185.496C58.5762 187.004 60.0086 188.362 61.6671 189.569C63.3257 190.776 65.0596 191.757 66.8689 192.511L69.4321 187.759C71.0906 188.438 72.8245 188.815 74.6338 189.041V194.472C78.6294 194.774 82.6249 194.171 86.3189 192.737L84.7358 187.532C86.3943 186.853 87.9021 185.948 89.3344 184.817L93.1792 188.664ZM71.166 176.971C66.9443 173.803 66.0396 167.844 69.1305 163.544C72.2968 159.32 78.2524 158.414 82.5495 161.507C86.7712 164.675 87.6759 170.635 84.585 174.935C81.4187 179.234 75.3877 180.14 71.166 176.971Z" fill="#ADBBF9" />
      <path d="M78.3279 187.532C80.5141 187.759 90.5407 188.739 90.4653 189.343C90.3899 189.946 86.9975 190.097 87.1482 190.399C87.299 190.851 89.8622 191.229 91.2946 191.304C92.5761 191.379 94.687 191.681 94.687 192.285C94.7624 193.341 87.676 192.888 87.676 192.888C87.676 193.19 95.3655 191.983 95.5163 192.888C95.7424 194.171 87.5252 194.849 87.299 195.151C87.299 195.151 94.2347 192.662 94.4608 193.567C94.6116 194.548 88.5052 196.962 86.4697 196.962C88.0529 196.66 92.8023 193.944 92.9531 194.623C93.1039 195.302 88.8822 197.112 88.2037 197.263C82.625 198.169 76.8955 197.641 76.8955 197.641" fill="#FFCBBD" />
      <path d="M43.8757 151.398C43.8757 151.398 41.6895 152.455 38.4478 151.021C34.9046 149.513 34.1507 147.702 34.1507 147.702C34.1507 147.702 15.0023 149.437 7.99121 202.619L47.2682 207.522C47.2682 207.522 50.4345 188.513 49.9068 173.124C49.6052 163.317 45.8358 155.698 43.8757 151.398Z" fill="#0E32AE" />
      <path d="M32.3413 172.747C32.3413 172.747 38.3723 192.963 54.7315 197.339C69.2813 201.261 80.5894 201.186 80.5894 201.186L82.1726 187.532C82.1726 187.532 64.3811 184.364 57.0685 179.536C51.4898 175.84 50.4344 164.072 49.002 159.847C47.0419 154.039 43.8756 151.323 43.8756 151.323" fill="#0E32AE" />
      <path d="M32.6431 148.155C32.6431 148.155 33.8493 151.852 39.428 153.059C43.4989 153.964 45.082 152.757 45.082 152.757" stroke="#121649" stroke-width="0.75" stroke-miterlimit="10" />
      <path d="M48.3237 195.076C48.3237 195.076 33.4723 188.211 32.6431 168.749" stroke="#121649" stroke-width="0.75" stroke-miterlimit="10" />
      <path d="M78.8558 186.929L76.8203 201.111" stroke="#121649" stroke-width="0.75" stroke-miterlimit="10" />
      <defs>
        <linearGradient id="paint0_linear" x1="130.402" y1="269.375" x2="351.199" y2="48.717" gradientUnits="userSpaceOnUse">
          <stop offset="0.2704" stop-color="white" stop-opacity="0.1" />
          <stop offset="1" stop-color="white" stop-opacity="0.3" />
        </linearGradient>
        <linearGradient id="paint1_linear" x1="167.693" y1="264.763" x2="379.266" y2="53.3229" gradientUnits="userSpaceOnUse">
          <stop offset="0.2704" stop-color="white" stop-opacity="0.1" />
          <stop offset="1" stop-color="white" stop-opacity="0.3" />
        </linearGradient>
      </defs>
    </svg>